<?xml version="1.0" encoding="UTF-8" standalone="no"?>
<!-- Created with Inkscape (http://www.inkscape.org/) -->

<svg
   width="94.368851mm"
   height="97.971962mm"
   viewBox="0 0 94.368851 97.971962"
   version="1.1"
   id="svg1"
   xml:space="preserve"
   inkscape:version="1.3.2 (091e20e, 2023-11-25, custom)"
   sodipodi:docname="TomoTickets.svg"
   xmlns:inkscape="http://www.inkscape.org/namespaces/inkscape"
   xmlns:sodipodi="http://sodipodi.sourceforge.net/DTD/sodipodi-0.dtd"
   xmlns:xlink="http://www.w3.org/1999/xlink"
   xmlns="http://www.w3.org/2000/svg"
   xmlns:svg="http://www.w3.org/2000/svg"><sodipodi:namedview
     id="namedview1"
     pagecolor="#505050"
     bordercolor="#eeeeee"
     borderopacity="1"
     inkscape:showpageshadow="0"
     inkscape:pageopacity="0"
     inkscape:pagecheckerboard="0"
     inkscape:deskcolor="#505050"
     inkscape:document-units="mm"
     inkscape:zoom="2.8284272"
     inkscape:cx="163.69522"
     inkscape:cy="184.37809"
     inkscape:window-width="1920"
     inkscape:window-height="1001"
     inkscape:window-x="-9"
     inkscape:window-y="-9"
     inkscape:window-maximized="1"
     inkscape:current-layer="layer4" /><defs
     id="defs1"><linearGradient
       id="linearGradient354"
       inkscape:collect="always"><stop
         style="stop-color:#fa45c1;stop-opacity:1;"
         offset="0"
         id="stop354" /><stop
         style="stop-color:#fffb41;stop-opacity:1"
         offset="1"
         id="stop355" /></linearGradient><inkscape:perspective
       sodipodi:type="inkscape:persp3d"
       inkscape:vp_x="0 : -50.528044 : 1"
       inkscape:vp_y="0 : 1000 : 0"
       inkscape:vp_z="210 : -50.528044 : 1"
       inkscape:persp3d-origin="105 : -100.02804 : 1"
       id="perspective99" /><linearGradient
       id="linearGradient24"
       inkscape:collect="always"><stop
         style="stop-color:#961a30;stop-opacity:1"
         offset="0"
         id="stop23" /><stop
         style="stop-color:#57007e;stop-opacity:1"
         offset="1"
         id="stop24" /></linearGradient><linearGradient
       id="linearGradient21"
       inkscape:collect="always"><stop
         style="stop-color:#fb8bfc;stop-opacity:1"
         offset="0"
         id="stop21" /><stop
         style="stop-color:#9fffff;stop-opacity:1"
         offset="1"
         id="stop22" /></linearGradient><linearGradient
       id="linearGradient10"
       inkscape:collect="always"><stop
         style="stop-color:#fb8cfc;stop-opacity:1;"
         offset="0"
         id="stop9" /><stop
         style="stop-color:#9fffff;stop-opacity:1;"
         offset="1"
         id="stop10" /></linearGradient><linearGradient
       id="linearGradient8"
       inkscape:collect="always"><stop
         style="stop-color:#84060a;stop-opacity:1"
         offset="0"
         id="stop7" /><stop
         style="stop-color:#57007f;stop-opacity:1"
         offset="1"
         id="stop8" /></linearGradient><linearGradient
       id="linearGradient5"
       inkscape:collect="always"><stop
         style="stop-color:#fb8bfc;stop-opacity:1;"
         offset="0"
         id="stop5" /><stop
         style="stop-color:#9fffff;stop-opacity:1"
         offset="1"
         id="stop6" /></linearGradient><linearGradient
       id="linearGradient38"
       inkscape:collect="always"><stop
         style="stop-color:#890b15;stop-opacity:1"
         offset="0"
         id="stop37" /><stop
         style="stop-color:#923bbc;stop-opacity:1;"
         offset="1"
         id="stop38" /></linearGradient><linearGradient
       id="linearGradient35"
       inkscape:collect="always"><stop
         style="stop-color:#fb8cfc;stop-opacity:1;"
         offset="0"
         id="stop35" /><stop
         style="stop-color:#9fffff;stop-opacity:1;"
         offset="1"
         id="stop36" /></linearGradient><linearGradient
       inkscape:collect="always"
       xlink:href="#linearGradient38"
       id="linearGradient36"
       x1="129.93556"
       y1="154.33832"
       x2="138.38474"
       y2="126.95396"
       gradientUnits="userSpaceOnUse"
       gradientTransform="matrix(1.0903609,0,0,1.0250023,-162.6805,-24.209415)" /><linearGradient
       inkscape:collect="always"
       xlink:href="#linearGradient10"
       id="linearGradient37"
       gradientUnits="userSpaceOnUse"
       x1="131.85379"
       y1="148.18675"
       x2="136.99567"
       y2="129.20291"
       gradientTransform="translate(-147.71904,-20.428315)" /><linearGradient
       inkscape:collect="always"
       xlink:href="#linearGradient38"
       id="linearGradient2"
       gradientUnits="userSpaceOnUse"
       gradientTransform="matrix(1.0903609,0,0,1.0250023,-118.90087,-24.130459)"
       x1="129.93556"
       y1="154.33832"
       x2="138.38474"
       y2="126.95396" /><linearGradient
       inkscape:collect="always"
       xlink:href="#linearGradient35"
       id="linearGradient3"
       gradientUnits="userSpaceOnUse"
       gradientTransform="translate(-103.93941,-20.349359)"
       x1="131.85379"
       y1="148.18675"
       x2="136.99567"
       y2="129.20291" /><linearGradient
       inkscape:collect="always"
       xlink:href="#linearGradient8"
       id="linearGradient6"
       x1="9.6363878"
       y1="137.80757"
       x2="14.565835"
       y2="118.72453"
       gradientUnits="userSpaceOnUse"
       gradientTransform="matrix(1.0264269,0,0,1.0264269,-39.446281,-11.648517)" /><linearGradient
       inkscape:collect="always"
       xlink:href="#linearGradient5"
       id="linearGradient7"
       gradientUnits="userSpaceOnUse"
       x1="9.6363878"
       y1="137.80757"
       x2="14.565835"
       y2="118.72453"
       gradientTransform="translate(-37.993578,-9.2827515)" /><linearGradient
       inkscape:collect="always"
       xlink:href="#linearGradient21"
       id="linearGradient22"
       x1="-27.617826"
       y1="135.32965"
       x2="-21.93852"
       y2="106.63779"
       gradientUnits="userSpaceOnUse"
       gradientTransform="translate(28.843426,0.28800657)" /><linearGradient
       inkscape:collect="always"
       xlink:href="#linearGradient24"
       id="linearGradient23"
       gradientUnits="userSpaceOnUse"
       gradientTransform="matrix(1.1975664,0,0,1.0566004,28.711291,-7.9670745)"
       x1="-27.617826"
       y1="135.32965"
       x2="-21.93852"
       y2="106.63779" /><filter
       inkscape:collect="always"
       style="color-interpolation-filters:sRGB"
       id="filter116-6"
       x="-0.092404505"
       y="-0.2230859"
       width="1.184809"
       height="1.4461718"><feGaussianBlur
         inkscape:collect="always"
         stdDeviation="2.2640284"
         id="feGaussianBlur116-8" /></filter><filter
       inkscape:collect="always"
       style="color-interpolation-filters:sRGB"
       id="filter116-1"
       x="-0.092404505"
       y="-0.2230859"
       width="1.184809"
       height="1.4461718"><feGaussianBlur
         inkscape:collect="always"
         stdDeviation="2.2640284"
         id="feGaussianBlur116-5" /></filter><filter
       inkscape:collect="always"
       style="color-interpolation-filters:sRGB"
       id="filter116-7"
       x="-0.092404505"
       y="-0.2230859"
       width="1.184809"
       height="1.4461718"><feGaussianBlur
         inkscape:collect="always"
         stdDeviation="2.2640284"
         id="feGaussianBlur116-6" /></filter><filter
       inkscape:collect="always"
       style="color-interpolation-filters:sRGB"
       id="filter116-60"
       x="-0.092404505"
       y="-0.2230859"
       width="1.184809"
       height="1.4461718"><feGaussianBlur
         inkscape:collect="always"
         stdDeviation="2.2640284"
         id="feGaussianBlur116-9" /></filter><filter
       inkscape:collect="always"
       style="color-interpolation-filters:sRGB"
       id="filter2-3"
       x="-0.022811413"
       y="-0.033072764"
       width="1.0456228"
       height="1.0661455"><feGaussianBlur
         inkscape:collect="always"
         stdDeviation="0.8578168"
         id="feGaussianBlur2-1" /></filter><filter
       inkscape:collect="always"
       style="color-interpolation-filters:sRGB"
       id="filter2-32"
       x="-0.022811413"
       y="-0.033072764"
       width="1.0456228"
       height="1.0661455"><feGaussianBlur
         inkscape:collect="always"
         stdDeviation="0.8578168"
         id="feGaussianBlur2-5" /></filter><filter
       inkscape:collect="always"
       style="color-interpolation-filters:sRGB"
       id="filter2-5"
       x="-0.022811413"
       y="-0.033072764"
       width="1.0456228"
       height="1.0661455"><feGaussianBlur
         inkscape:collect="always"
         stdDeviation="0.8578168"
         id="feGaussianBlur2-59" /></filter><linearGradient
       inkscape:collect="always"
       xlink:href="#linearGradient354"
       id="linearGradient355"
       x1="117.21105"
       y1="97.379646"
       x2="117.21105"
       y2="56.594315"
       gradientUnits="userSpaceOnUse" /><linearGradient
       inkscape:collect="always"
       xlink:href="#linearGradient354"
       id="linearGradient356"
       gradientUnits="userSpaceOnUse"
       x1="117.21105"
       y1="97.379646"
       x2="117.21105"
       y2="56.594315" /><linearGradient
       inkscape:collect="always"
       xlink:href="#linearGradient354"
       id="linearGradient377"
       gradientUnits="userSpaceOnUse"
       x1="117.21105"
       y1="97.379646"
       x2="117.21105"
       y2="56.594315" /><linearGradient
       inkscape:collect="always"
       xlink:href="#linearGradient354"
       id="linearGradient378"
       gradientUnits="userSpaceOnUse"
       x1="117.21105"
       y1="97.379646"
       x2="117.21105"
       y2="56.594315" /><linearGradient
       inkscape:collect="always"
       xlink:href="#linearGradient354"
       id="linearGradient379"
       gradientUnits="userSpaceOnUse"
       x1="117.21105"
       y1="97.379646"
       x2="117.21105"
       y2="56.594315" /><linearGradient
       inkscape:collect="always"
       xlink:href="#linearGradient354"
       id="linearGradient380"
       gradientUnits="userSpaceOnUse"
       x1="117.21105"
       y1="97.379646"
       x2="117.21105"
       y2="56.594315" /><linearGradient
       inkscape:collect="always"
       xlink:href="#linearGradient354"
       id="linearGradient381"
       gradientUnits="userSpaceOnUse"
       x1="117.21105"
       y1="97.379646"
       x2="117.21105"
       y2="56.594315" /><linearGradient
       inkscape:collect="always"
       xlink:href="#linearGradient354"
       id="linearGradient382"
       gradientUnits="userSpaceOnUse"
       x1="117.21105"
       y1="97.379646"
       x2="117.21105"
       y2="56.594315" /><linearGradient
       inkscape:collect="always"
       xlink:href="#linearGradient354"
       id="linearGradient383"
       gradientUnits="userSpaceOnUse"
       x1="117.21105"
       y1="97.379646"
       x2="117.21105"
       y2="56.594315" /><linearGradient
       inkscape:collect="always"
       xlink:href="#linearGradient354"
       id="linearGradient384"
       gradientUnits="userSpaceOnUse"
       x1="117.21105"
       y1="97.379646"
       x2="117.21105"
       y2="56.594315" /><filter
       inkscape:collect="always"
       style="color-interpolation-filters:sRGB"
       id="filter393"
       x="-0.29899665"
       y="-0.3010101"
       width="1.5979933"
       height="1.6020202"><feGaussianBlur
         inkscape:collect="always"
         stdDeviation="6.7825894"
         id="feGaussianBlur393" /></filter></defs><g
     inkscape:groupmode="layer"
     id="layer2"
     inkscape:label="Ticket"
     transform="translate(-51.281603,-77.256111)"><g
       id="g353"
       inkscape:label="Brillo"
       transform="translate(-67.913187,-4.1159507)"><path
         id="path1-1-8"
         style="fill:#081efc;fill-opacity:1;stroke-width:10.97;filter:url(#filter2-3)"
         inkscape:highlight-color="#7d7d7d"
         d="m 138.4773,115.03584 c -1.40393,4.62916 -4.58662,5.53368 -8.80825,4.26331 l -2.72076,10.58902 c 8.12203,1.21481 6.75097,13.70131 -2.97036,11.01483 l -2.72438,10.24278 c 3.67663,0.79304 6.21903,2.65146 5.30872,7.7525 l 68.54155,18.38698 c 0.90027,-3.36461 2.85557,-5.62985 7.92096,-4.65397 l 2.67064,-9.53792 c -7.74423,-2.1266 -6.1911,-13.12204 2.97087,-11.15487 l 2.83859,-10.45466 c -3.02114,-0.53343 -7.10241,-4.53063 -7.48998,-8.99221 z m 1.00252,1.52963 63.35634,16.94728 c 0.18628,3.41679 1.89083,6.64282 7.08587,9.04906 l -2.1518,7.85895 c -7.33303,-2.02814 -12.76444,9.34262 -3.62717,13.75264 l -1.87121,6.92258 c -3.9385,-0.40547 -6.76256,0.89917 -8.02121,4.60695 l -66.1479,-17.64749 c 0.36967,-4.05037 -1.43726,-6.66035 -5.3082,-7.90443 l 1.96939,-7.61917 c 10.10028,2.09221 11.86862,-10.64256 3.81837,-13.76247 l 1.98437,-7.73906 c 4.18665,1.07316 7.19583,-0.33479 8.91315,-4.46484 z"
         inkscape:label="Brillo" /><path
         id="path1-1-6"
         style="fill:#081efc;fill-opacity:1;stroke-width:10.97;filter:url(#filter2-32)"
         inkscape:highlight-color="#7d7d7d"
         d="m 138.4773,115.03584 c -1.40393,4.62916 -4.58662,5.53368 -8.80825,4.26331 l -2.72076,10.58902 c 8.12203,1.21481 6.75097,13.70131 -2.97036,11.01483 l -2.72438,10.24278 c 3.67663,0.79304 6.21903,2.65146 5.30872,7.7525 l 68.54155,18.38698 c 0.90027,-3.36461 2.85557,-5.62985 7.92096,-4.65397 l 2.67064,-9.53792 c -7.74423,-2.1266 -6.1911,-13.12204 2.97087,-11.15487 l 2.83859,-10.45466 c -3.02114,-0.53343 -7.10241,-4.53063 -7.48998,-8.99221 z m 1.00252,1.52963 63.35634,16.94728 c 0.18628,3.41679 1.89083,6.64282 7.08587,9.04906 l -2.1518,7.85895 c -7.33303,-2.02814 -12.76444,9.34262 -3.62717,13.75264 l -1.87121,6.92258 c -3.9385,-0.40547 -6.76256,0.89917 -8.02121,4.60695 l -66.1479,-17.64749 c 0.36967,-4.05037 -1.43726,-6.66035 -5.3082,-7.90443 l 1.96939,-7.61917 c 10.10028,2.09221 11.86862,-10.64256 3.81837,-13.76247 l 1.98437,-7.73906 c 4.18665,1.07316 7.19583,-0.33479 8.91315,-4.46484 z"
         inkscape:label="Brillo" /><path
         id="path1-1-0"
         style="fill:#081efc;fill-opacity:1;stroke-width:10.97;filter:url(#filter2-5)"
         inkscape:highlight-color="#7d7d7d"
         d="m 138.4773,115.03584 c -1.40393,4.62916 -4.58662,5.53368 -8.80825,4.26331 l -2.72076,10.58902 c 8.12203,1.21481 6.75097,13.70131 -2.97036,11.01483 l -2.72438,10.24278 c 3.67663,0.79304 6.21903,2.65146 5.30872,7.7525 l 68.54155,18.38698 c 0.90027,-3.36461 2.85557,-5.62985 7.92096,-4.65397 l 2.67064,-9.53792 c -7.74423,-2.1266 -6.1911,-13.12204 2.97087,-11.15487 l 2.83859,-10.45466 c -3.02114,-0.53343 -7.10241,-4.53063 -7.48998,-8.99221 z m 1.00252,1.52963 63.35634,16.94728 c 0.18628,3.41679 1.89083,6.64282 7.08587,9.04906 l -2.1518,7.85895 c -7.33303,-2.02814 -12.76444,9.34262 -3.62717,13.75264 l -1.87121,6.92258 c -3.9385,-0.40547 -6.76256,0.89917 -8.02121,4.60695 l -66.1479,-17.64749 c 0.36967,-4.05037 -1.43726,-6.66035 -5.3082,-7.90443 l 1.96939,-7.61917 c 10.10028,2.09221 11.86862,-10.64256 3.81837,-13.76247 l 1.98437,-7.73906 c 4.18665,1.07316 7.19583,-0.33479 8.91315,-4.46484 z"
         inkscape:label="Brillo" /></g><g
       id="g352"
       inkscape:label="Fondo"
       transform="translate(2.875155,-76.671453)"><path
         id="rect24"
         style="fill:#00002e;fill-opacity:1;stroke-width:10.97"
         inkscape:label="Fondo"
         d="m 68.728346,189.00941 c -1.71732,4.13005 -4.7265,5.53801 -8.91314,4.46485 l -1.98438,7.73906 c 8.05024,3.11991 6.28191,15.85468 -3.81837,13.76247 l -1.96938,7.61917 c 3.87092,1.24408 5.67786,3.85406 5.3082,7.90443 l 66.147894,17.6475 c 1.25865,-3.70778 4.08272,-5.01242 8.02122,-4.60695 l 1.8712,-6.92258 c -9.13726,-4.41003 -3.70586,-15.78079 3.62717,-13.75265 l 2.1518,-7.85895 c -5.19503,-2.40624 -6.89959,-5.63227 -7.08587,-9.04906 z"
         sodipodi:nodetypes="ccccccccccccc" /><path
         id="rect24-8"
         style="fill:#6a1a80;fill-opacity:1;stroke-width:10.97"
         inkscape:label="Fondo"
         d="m 53.212007,218.03109 -0.06046,0.2341 4.947502,-0.016 -0.05736,0.15709 c -0.0315,0.0863 -0.255098,0.61628 -0.497128,1.17822 l -0.440283,1.02165 -4.561478,0.0139 -0.07183,0.27647 h 4.501534 l -0.06356,0.17415 c -0.0349,0.0957 -0.278679,0.66944 -0.541569,1.27486 l -0.478007,1.1007 -1.907894,0.006 c 0.166662,0.0951 0.346252,0.18155 0.500745,0.28474 h 1.266073 v 0.0424 c 0,0.0132 -0.22978,0.53787 -0.305925,0.72192 0.269685,0.25868 0.509508,0.53695 0.72347,0.83251 0.05635,-0.13914 0.05103,-0.13616 0.114205,-0.28991 l 0.537435,-1.30689 h 5.617745 5.618262 l -0.06253,0.24236 c -0.0344,0.13312 -0.205402,0.73362 -0.379822,1.33428 -0.174409,0.60066 -0.317293,1.10135 -0.317293,1.11311 -4.7e-4,0.0117 -2.597571,0.0212 -5.772257,0.0212 h -4.717025 c 0.03691,0.0844 0.07046,0.17114 0.10387,0.25787 h 4.522204 c 3.173157,0 5.769157,0.0116 5.769157,0.0258 0,0.0552 -0.762019,2.7237 -0.808219,2.83031 l -0.04909,0.11318 h -5.994466 -2.984314 c -0.0019,0.11474 -0.003,0.22893 -0.0088,0.34623 l 2.877344,-0.008 6.029089,-0.0165 v 0.0532 c 0,0.0294 -0.163622,0.61763 -0.363802,1.30741 -0.175774,0.60567 -0.312555,1.08835 -0.374654,1.31413 l 1.050582,0.28009 5.16e-4,-0.001 c 0.0281,-0.0799 0.181782,-0.62447 0.341582,-1.21026 0.159799,-0.58576 0.33449,-1.21766 0.38809,-1.40405 l 0.09767,-0.33899 h 6.000667 6.000668 v 0.18086 c 0,0.0992 -0.08489,0.74379 -0.188102,1.43299 -0.10323,0.68919 -0.187586,1.30523 -0.187586,1.36891 v 0.11575 h -6.252331 -5.66167 l 1.208711,0.32247 h 4.375961 6.235278 v 0.11317 c -4e-5,0.0622 -0.105631,0.82467 -0.234611,1.69447 -0.07464,0.50331 -0.09286,0.63063 -0.135909,0.92449 l 1.149284,0.30644 c 0.01955,-0.21677 0.0885,-0.78825 0.189652,-1.52135 l 0.205156,-1.48467 h 6.241996 6.241996 l 0.02481,1.69447 0.02584,1.69447 h -6.478674 -5.015715 l 1.23145,0.32866 3.787882,0.009 6.424414,0.0171 0.02481,1.82314 0.0124,0.8847 1.226282,0.32763 -0.04341,-1.08469 c -0.0378,-0.93283 -0.05267,-1.75358 -0.03307,-1.82366 l 0.03566,-0.12712 6.454905,-0.0171 6.45439,-0.016 0.0413,0.0806 c 0.0367,0.0728 0.51676,3.34861 0.51676,3.5264 l -5.2e-4,0.0729 h -6.70036 -4.433324 l 1.453141,0.38757 h 3.016873 6.75824 l 0.005,0.17725 c 0.003,0.0976 0.12034,0.98491 0.26097,1.97197 0.0422,0.29592 0.0319,0.29793 0.0641,0.54674 l 1.32808,0.3545 c -0.0516,-0.36102 -0.07,-0.51312 -0.15606,-1.08211 -0.15487,-1.02442 -0.28164,-1.88649 -0.28164,-1.91564 v -0.0527 h 6.75153 6.75153 l 0.0982,0.33848 c 0.0539,0.18638 0.29138,1.03622 0.52813,1.88826 0.23676,0.85204 0.45233,1.59975 0.47853,1.66191 l 0.0475,0.11317 h -7.04608 -3.60495 l 1.45107,0.38706 h 2.23088 7.03006 l 0.0517,0.14521 c 0.0222,0.0622 0.24077,0.83806 0.44649,1.57096 0.25214,-0.56425 0.54656,-1.06426 0.88367,-1.4981 -0.003,-0.0132 -0.0476,-0.16472 -0.0476,-0.16691 v -0.0512 h 0.231 c 0.11568,-0.13548 0.23517,-0.2651 0.35966,-0.38706 h -0.67334 l -0.0429,-0.0486 c -0.0236,-0.0266 -0.28238,-0.87595 -0.57464,-1.88774 -0.29226,-1.01179 -0.55258,-1.8907 -0.57878,-1.95286 l -0.0475,-0.11265 h 6.76134 2.05363 l 0.1049,-0.38757 h -2.28823 -6.70967 l -0.0496,-0.14522 c -0.16606,-0.48286 -0.98593,-3.32752 -0.98599,-3.42098 l -5.1e-4,-0.11317 h 6.4704 4.55838 l 0.0868,-0.32246 h -4.81263 -6.46317 l -0.48318,-1.66243 c -0.26571,-0.91416 -0.48268,-1.68388 -0.48265,-1.71049 v -0.0486 h 6.23476 2.32027 c -0.0669,-0.10642 -0.12854,-0.21392 -0.18862,-0.32195 h -2.2686 -6.19755 l -0.0393,-0.0806 c -0.0216,-0.0444 -0.21302,-0.69107 -0.4253,-1.43661 -0.21228,-0.74553 -0.40747,-1.40596 -0.43357,-1.46813 l -0.0475,-0.11368 h 6.04459 2.51406 c -0.003,-0.10769 -0.006,-0.21509 -0.005,-0.32246 h -2.61483 -6.00686 l -0.10077,-0.339 c -0.52337,-1.7608 -0.7337,-2.53991 -0.6966,-2.58124 l 0.0439,-0.0491 h 5.76089 4.32635 c 0.0398,-0.0858 0.0749,-0.17368 0.11782,-0.25787 h -4.63175 c -3.17498,0 -5.77226,-0.009 -5.77226,-0.0202 0,-0.0114 -0.16919,-0.59775 -0.37569,-1.30276 -0.20651,-0.70502 -0.37517,-1.30565 -0.37517,-1.33481 l 5.2e-4,-0.0532 h 5.60947 5.61 l 0.54157,1.30741 c 0.0575,0.13868 0.0519,0.13431 0.10387,0.26148 0.22286,-0.29329 0.46075,-0.57217 0.72347,-0.82734 -0.0462,-0.11419 -0.29249,-0.6698 -0.29249,-0.68626 v -0.0553 h 1.19579 c 0.1308,-0.09 0.2631,-0.17752 0.39998,-0.25787 h -1.74873 l -0.53692,-1.24282 c -0.29513,-0.68341 -0.5353,-1.2645 -0.5333,-1.29139 l 0.003,-0.0491 5.41982,0.017 2.78123,0.008 0.0775,-0.28216 h -3.01997 -5.41879 l -0.20309,-0.46767 c -0.1115,-0.25738 -0.34594,-0.79536 -0.5209,-1.19476 l -0.31781,-0.72605 h 5.27048 4.8643 l 0.0599,-0.21911 z m 16.449125,0.21808 -0.04289,0.0811 c -0.0237,0.0447 -0.184935,0.58235 -0.358634,1.19476 l -0.31626,1.11362 H 63.51939 c -2.983308,0 -5.423409,-0.007 -5.422409,-0.016 10e-4,-0.009 0.223074,-0.53919 0.492994,-1.17822 l 0.490926,-1.1622 5.290116,-0.0165 z m 35.438668,0 5.28288,0.0165 5.28288,0.0165 0.31006,1.09761 c 0.17044,0.60353 0.31064,1.13386 0.31264,1.17822 l 0.003,0.0806 h -5.39295 -5.39295 l -0.0491,-0.2098 c -0.0268,-0.11537 -0.0926,-0.52933 -0.14676,-0.91984 -0.0542,-0.39052 -0.12339,-0.83378 -0.15399,-0.98496 z m -34.500224,0.001 h 5.259628 5.259627 l -0.06201,0.46819 c -0.03416,0.25739 -0.109648,0.79484 -0.167948,1.19424 l -0.105937,0.72605 h -5.419307 -5.419824 l 0.119889,-0.43614 c 0.066,-0.23965 0.213855,-0.77658 0.328145,-1.19373 z m 11.533663,0 h 5.251876 5.252393 v 1.19424 1.19424 h -5.397087 -5.397603 v -0.23874 c 0,-0.26881 0.168762,-1.61883 0.242362,-1.93993 z m 11.414291,0 h 5.303552 5.303548 l 0.11163,0.85524 c 0.0615,0.4704 0.13714,1.00787 0.16794,1.19425 l 0.0558,0.33899 h -5.410001 -5.410006 l -5.17e-4,-0.56482 c -3e-4,-0.31064 -0.02768,-0.84809 -0.06098,-1.19424 z m 23.11952,0 h 5.24981 5.25032 l 0.047,0.11317 c 0.0259,0.0621 0.23977,0.56763 0.47542,1.12345 0.23566,0.55582 0.42892,1.04222 0.42892,1.08107 v 0.0708 h -5.39761 c -2.96847,0 -5.39708,-0.0104 -5.39708,-0.0217 0,-0.0118 -0.14798,-0.52443 -0.32867,-1.13998 -0.18069,-0.61555 -0.32814,-1.14356 -0.32814,-1.17306 z m -58.607793,2.64532 5.40122,0.017 5.401221,0.0165 -0.266134,0.93586 c -0.146319,0.51478 -0.311836,1.08847 -0.367936,1.27485 l -0.102319,0.339 h -5.578471 -5.577954 v -0.047 c 0,-0.0981 0.967527,-2.4407 1.027327,-2.48719 z m 11.807548,0.001 h 5.424992 5.424475 l -0.0057,0.20981 c -0.0034,0.11538 -0.07733,0.68907 -0.164331,1.27485 l -0.15813,1.06505 -5.619812,0.0165 -5.619295,0.016 0.04806,-0.12661 c 0.0266,-0.0699 0.188252,-0.65153 0.359151,-1.29191 z m 11.882479,0 h 5.444112 5.444112 v 1.29139 l -5.17e-4,1.29088 H 87.051802 81.46713 l 0.0031,-0.24236 c 0.0015,-0.13314 0.06358,-0.66344 0.137976,-1.17822 0.07441,-0.51477 0.136976,-0.98642 0.137976,-1.04852 z m 11.920719,0 h 5.426542 5.426545 l 0.15916,1.17822 c 0.0875,0.64791 0.15907,1.22871 0.15865,1.29088 l -0.001,0.11317 h -5.585185 -5.584672 v -1.29088 z m 11.831317,0 h 5.4405 5.43997 l 0.0512,0.14573 c 0.17561,0.49957 0.66357,2.3773 0.62477,2.40398 -0.0263,0.0177 -2.53363,0.0326 -5.57227,0.0326 h -5.52524 l -0.0393,-0.0811 c -0.0217,-0.0444 -0.10596,-0.54508 -0.18706,-1.11311 -0.0811,-0.56801 -0.16636,-1.11315 -0.18966,-1.21078 z m 17.34675,0 h 5.43016 l 0.5302,1.25109 c 0.2916,0.6881 0.5302,1.26894 0.5302,1.29087 v 0.0398 h -5.58312 -5.58313 l -0.0501,-0.14469 c -0.059,-0.17126 -0.70435,-2.38421 -0.70435,-2.41536 0,-0.0117 2.44353,-0.0217 5.43016,-0.0217 z m -53.748144,2.84014 h 5.620846 5.620329 l -0.0016,0.0486 c -0.001,0.0266 -0.08567,0.61461 -0.187585,1.3069 -0.10191,0.69227 -0.185178,1.2808 -0.185518,1.30741 l -5.17e-4,0.0481 H 74.15745 68.349536 l 0.118855,-0.40307 c 0.0655,-0.22188 0.234788,-0.83234 0.375688,-1.35599 z m 12.27367,0 h 5.631697 5.632215 v 1.35547 1.35599 h -5.813599 -5.814115 l 0.04186,-0.20981 c 0.04617,-0.23374 0.321944,-2.31455 0.321944,-2.42879 z m 12.296407,0 h 5.631698 5.632209 v 0.11317 c 4.1e-4,0.14812 0.26455,2.04398 0.32815,2.35593 l 0.0496,0.24236 h -5.820834 -5.820833 v -1.35599 z m 12.296407,0 h 5.61981 5.61981 l 0.0584,0.24236 c 0.0321,0.13312 0.19994,0.74307 0.3731,1.35547 l 0.31575,1.11363 h -5.80585 -5.80533 v -0.0811 c -1.3e-4,-0.0444 -0.0842,-0.61809 -0.18655,-1.27486 -0.10229,-0.65678 -0.18625,-1.2305 -0.18707,-1.27486 z m -26.094531,2.96829 v 0.18087 c 0,0.0994 -0.0843,0.74482 -0.187586,1.43402 -0.10323,0.68919 -0.188102,1.27612 -0.188102,1.30431 v 0.0512 h -6.007385 -6.007385 l 0.0057,-0.0481 c 0.003,-0.0266 0.183413,-0.68812 0.400492,-1.46916 l 0.394808,-1.42007 5.794479,-0.016 z m 25.425841,0 0.0532,0.27492 c 0.093,0.47662 0.333,2.26665 0.33332,2.48564 l 5.1e-4,0.2098 h -5.951569 -5.95106 l -0.06253,-0.72657 c -0.0347,-0.39939 -0.04906,-1.05986 -0.03256,-1.46813 l 0.02997,-0.74259 5.790345,-0.016 z m 1.13791,0 5.79603,0.016 5.79603,0.0165 0.34313,1.19476 c 0.18863,0.65679 0.37063,1.31723 0.40463,1.46812 l 0.0615,0.27441 h -6.01307 -6.01358 l -5.2e-4,-0.14522 c -8.3e-4,-0.0799 -0.0853,-0.68268 -0.18759,-1.33945 -0.10233,-0.65678 -0.18642,-1.25982 -0.18655,-1.33997 z m -25.438239,0.016 c 4.4e-4,-0.009 2.609183,-0.009 5.797063,0 l 5.796028,0.0165 0.02532,1.46864 0.02532,1.46865 H 86.63167 80.622734 l 0.001,-0.11318 c 4.3e-4,-0.0621 0.08416,-0.72259 0.186552,-1.46812 0.102339,-0.74554 0.186638,-1.36338 0.187068,-1.37253 z m 25.907459,3.27525 6.02806,0.0171 6.02806,0.0165 0.39584,1.38751 c 0.2177,0.76329 0.39852,1.45336 0.40152,1.53324 l 0.006,0.14521 h -6.19084 -6.19084 l -0.0491,-0.2098 c -0.0466,-0.19984 -0.43032,-2.73831 -0.42943,-2.84065 z m -26.376164,0.001 h 6.054411 6.054411 v 1.54926 1.54925 h -6.241996 -6.241997 l 5.17e-4,-0.048 c 4.3e-4,-0.0266 0.08468,-0.65851 0.187069,-1.40405 0.102339,-0.74553 0.186638,-1.42082 0.187068,-1.50069 z m 13.234851,0 h 6.000664 6.000669 l 0.0584,0.33899 c 0.0321,0.18639 0.13264,0.88361 0.22324,1.54926 l 0.16433,1.21026 h -6.223393 -6.22391 v -1.54925 z m 5.17e-4,3.42098 h 6.235793 6.236313 l 0.0543,0.2744 c 0.0596,0.30149 0.42597,2.9371 0.42633,3.06648 l 5.2e-4,0.0806 h -6.47661 -6.476606 v -1.711 z m 19.993096,0.016 6.14794,0.0165 0.35244,1.22628 c 0.19366,0.67453 0.4099,1.43708 0.4811,1.69447 l 0.12971,0.46819 h -6.46575 c -3.55597,0 -6.46741,-0.007 -6.47041,-0.016 -0.003,-0.009 -0.12106,-0.76762 -0.26251,-1.68568 l -0.25735,-1.66915 0.0982,-0.0253 c 0.054,-0.0139 2.86519,-0.0187 6.24665,-0.009 z m 0.75551,3.72793 h 6.44973 l 0.29249,1.04903 c 0.16082,0.57691 0.39227,1.4048 0.51418,1.83969 l 0.22221,0.79065 h -6.74532 -6.74481 l -0.005,-0.14522 c -0.003,-0.0799 -0.12027,-0.89486 -0.26148,-1.81074 -0.14119,-0.9159 -0.23776,-1.67844 -0.21446,-1.69447 0.0233,-0.016 2.94516,-0.0289 6.49263,-0.0289 z" /></g><path
       id="path1"
       style="fill:#9effff;fill-opacity:1;stroke-width:10.97"
       inkscape:highlight-color="#7d7d7d"
       d="m 70.601753,110.80823 c -1.40394,4.62916 -4.58663,5.53368 -8.80825,4.26331 l -2.72077,10.58902 c 8.12203,1.21481 6.75097,13.70131 -2.97036,11.01483 l -2.72438,10.24278 c 3.67664,0.79304 6.21903,2.65146 5.30872,7.7525 l 68.541557,18.38699 c 0.90027,-3.36461 2.85557,-5.62985 7.92096,-4.65397 l 2.67064,-9.53792 c -7.74423,-2.12661 -6.1911,-13.12205 2.97087,-11.15488 l 2.83859,-10.45466 c -3.02114,-0.53343 -7.10241,-4.53063 -7.48998,-8.99221 z m 1.00252,1.52963 63.356337,16.94728 c 0.18628,3.41679 1.89083,6.64282 7.08587,9.04906 l -2.1518,7.85895 c -7.33303,-2.02814 -12.76444,9.34262 -3.62717,13.75265 l -1.87121,6.92258 c -3.9385,-0.40547 -6.76256,0.89917 -8.02121,4.60695 l -66.147897,-17.6475 c 0.36966,-4.05037 -1.43727,-6.66035 -5.30821,-7.90443 l 1.96939,-7.61917 c 10.10029,2.09221 11.86862,-10.64256 3.81837,-13.76247 l 1.98438,-7.73906 c 4.18664,1.07316 7.19583,-0.33479 8.91315,-4.46484 z"
       inkscape:label="Borde" /></g><g
     inkscape:groupmode="layer"
     id="layer5"
     inkscape:label="Sol"
     transform="translate(-49.596991,-76.964372)"><ellipse
       style="mix-blend-mode:normal;fill:#ff00ff;fill-opacity:1;stroke-width:8.62216;filter:url(#filter393)"
       id="path393"
       cx="166.41536"
       cy="125.62504"
       rx="27.221399"
       ry="27.039316"
       transform="matrix(1.021595,0,0,1.021595,-73.191543,-7.1205655)" /><g
       id="g354"
       inkscape:label="Sol"
       transform="translate(-46.023807,39.007986)"
       style="fill:url(#linearGradient355);fill-opacity:1"><path
         id="path377"
         style="fill:url(#linearGradient377);fill-opacity:1;stroke-width:10.97"
         d="m 124.75699,100.46638 a 25.818235,25.818235 0 0 0 1.71721,1.5906 h 33.11013 a 25.818235,25.818235 0 0 0 1.7172,-1.5906 z" /><path
         id="path376"
         style="fill:url(#linearGradient378);fill-opacity:1;stroke-width:10.97"
         d="m 121.99437,97.192682 a 25.818235,25.818235 0 0 0 1.76785,2.244824 h 38.53408 a 25.818235,25.818235 0 0 0 1.76786,-2.244824 z" /><path
         id="path375"
         style="fill:url(#linearGradient379);fill-opacity:1;stroke-width:10.97"
         d="m 119.91181,93.731394 a 25.818235,25.818235 0 0 0 1.0449,1.870687 h 44.14511 a 25.818235,25.818235 0 0 0 1.0449,-1.870687 z" /><path
         id="path374"
         style="fill:url(#linearGradient380);fill-opacity:1;stroke-width:10.97"
         d="m 118.59975,90.55071 a 25.818235,25.818235 0 0 0 0.79168,1.964738 h 47.27567 a 25.818235,25.818235 0 0 0 0.79168,-1.964738 z" /><path
         id="path373"
         style="fill:url(#linearGradient381);fill-opacity:1;stroke-width:10.97"
         d="m 117.7135,87.183474 a 25.818235,25.818235 0 0 0 0.4749,1.870686 h 49.68172 a 25.818235,25.818235 0 0 0 0.47491,-1.870686 z" /><path
         id="path372"
         style="fill:url(#linearGradient382);fill-opacity:1;stroke-width:10.97"
         d="m 117.30939,83.909255 a 25.818235,25.818235 0 0 0 0.25011,2.057755 h 50.93953 a 25.818235,25.818235 0 0 0 0.25011,-2.057755 z" /><path
         id="path371"
         style="fill:url(#linearGradient383);fill-opacity:1;stroke-width:10.97"
         d="m 117.34039,80.447967 a 25.818235,25.818235 0 0 0 -0.12919,1.964738 25.818235,25.818235 0 0 0 0.0243,0.374138 h 51.58755 a 25.818235,25.818235 0 0 0 0.0243,-0.374138 25.818235,25.818235 0 0 0 -0.10852,-1.964738 z" /><path
         id="path370"
         style="fill:url(#linearGradient384);fill-opacity:1;stroke-width:10.97"
         d="m 117.87473,76.893662 a 25.818235,25.818235 0 0 0 -0.45889,2.618962 h 51.25785 a 25.818235,25.818235 0 0 0 -0.43046,-2.618962 z" /><path
         id="path364"
         style="fill:url(#linearGradient356);fill-opacity:1;stroke-width:10.97"
         d="m 143.02926,56.594126 a 25.818235,25.818235 0 0 0 -25.05273,19.831348 h 50.16128 A 25.818235,25.818235 0 0 0 143.02926,56.594126 Z" /></g></g><g
     inkscape:groupmode="layer"
     id="layer4"
     inkscape:label="Letras TOMO"
     style="display:inline"
     transform="translate(40.204756,-68.837121)"><path
       style="display:inline;fill:url(#linearGradient6);stroke-width:11.2599"
       d="m -28.092338,140.24946 c 0.521068,-0.0624 1.041207,-0.096 1.58427,-0.84014 4.207074,-4.59934 7.793954,-22.58281 7.579474,-23.73765 2.573738,0.76073 4.146427,0.89014 5.234807,0.48059 1.0395,-0.34204 0.890146,-1.08037 1.039707,-1.71905 0.344847,-1.6488 -0.747813,-3.48819 -1.925654,-4.73394 -1.366157,-0.21753 -2.543371,-0.72116 -4.086022,0.20851 l -10.242723,0.28855 c 0.373093,0.14941 0.537478,0.33092 0.288049,0.57609 -0.459395,-0.11703 -0.76401,-0.0621 -0.792134,0.30006 -0.229408,-0.16254 -0.235335,-0.44215 -1.092187,-0.27605 -0.139836,0.11151 -0.346098,0.23467 -0.390067,0.42607 -0.0704,0.20849 0.05211,0.39603 0.426072,0.41407 -0.167656,0.25186 -0.37937,0.47003 -0.816139,0.51609 -0.872753,1.49258 0.135972,1.99489 1.032178,2.55644 1.359838,0.80017 2.907484,0.76862 4.488767,0.5881 -0.61301,6.9563 -2.415873,13.51598 -4.145929,20.09992 0.415602,-0.28398 0.525533,-0.14448 0.609617,0.0578 0.354643,0.64085 -0.01384,0.98709 -0.238334,1.39199 0.412745,0.0753 0.172666,0.299 -0.408069,0.60011 5.01e-4,1.2908 0.264144,2.42963 1.854317,2.80244 z"
       id="path2"
       sodipodi:nodetypes="cccccccccccccccccccccc"
       inkscape:label="Trasera T" /><path
       id="path27"
       style="display:inline;opacity:1;fill:url(#linearGradient36);fill-opacity:1;stroke:none;stroke-width:11.5972;stroke-dasharray:none;stroke-opacity:1"
       d="m -3.895588,109.98905 c -0.41833,-0.009 -0.77848,0.0468 -1.04973,0.14832 -3.69856,-1.06031 -13.44996,8.08134 -12.69868,14.19077 -0.61071,9.24722 1.09868,15.66313 8.21073,15.48533 6.80065,-0.0942 10.51917,-4.75114 11.88223,-12.89622 2.33633,-13.57202 -3.41624997,-16.86232 -6.34455,-16.9282 z m -0.94774,5.42185 c 2.56534,0.16156 2.57133,4.10964 1.47851,9.68424 -0.86847,3.99762 -1.93013,7.77242 -6.06845,8.00616 -1.98442,0.58079 -2.54146,-3.76448 -3.16215,-2.92439 -1.75524,-1.2779 -0.67427,-4.22226 0.20397,-7.04745 2.51902,-5.07687 5.16505,-7.36986 7.54812,-7.71856 z"
       inkscape:label="Trasera O1" /><path
       d="m 9.8348913,101.10197 c -3.57482,6.76906 -6.9338,13.54902 -8.73768,20.40999 -2.3344999,6.79971 -3.11127,10.19666 -3.07697,12.51353 0.4791601,-0.14444 0.7817701,-0.56926 0.99760006,-1.1319 -0.24238996,0.9162 0.5931,1.13242 0.13863,1.81714 -0.96475006,0.40916 -0.65431996,0.88863 -0.86517006,1.33937 0.0445,0.16693 0.0939,0.33251 0.14729,0.49578 l 0.5000401,-0.0355 c -0.11709,0.2883 -0.38142,0.54166 -0.5266501,0.86489 0.1864001,0.44133 0.4014401,0.60367 0.5464501,0.74259 2.7300899,-1.36043 4.8064499,-7.47359 6.9621699,-12.82478 0.16141,5.79991 0.87412,9.18694 1.83059,12.75488 3.4457297,-5.176 7.0015897,-9.93785 11.6890197,-14.21164 -1.96733,9.05535 -4.99751,18.47966 -0.79709,25.39399 6.78808,-4.76459 9.1939,-25.58081 11.12957,-48.11905 -6.39173,6.86029 -12.10711,14.26788 -17.76932,21.95573 -0.75981,-7.19073 -1.51244,-14.40807 -2.1684797,-21.96502 z"
       style="display:inline;fill:url(#linearGradient23);stroke-width:12.3399"
       id="path15-9"
       sodipodi:nodetypes="scccccccccccccccss"
       inkscape:label="Trasera M" /><path
       id="path27-0"
       style="display:inline;opacity:1;fill:url(#linearGradient2);fill-opacity:1;stroke:none;stroke-width:11.5972;stroke-dasharray:none;stroke-opacity:1"
       d="m 39.884063,110.06801 c -0.41833,-0.009 -0.77848,0.0468 -1.04973,0.14832 -3.69856,-1.06032 -13.449965,8.08133 -12.698685,14.19077 -0.61071,9.24722 1.09868,15.66313 8.210735,15.48533 6.80065,-0.0942 10.51917,-4.75114 11.88223,-12.89622 2.33633,-13.57202 -3.41625,-16.86232 -6.34455,-16.9282 z m -0.94774,5.42185 c 2.56534,0.16156 2.57133,4.10964 1.47851,9.68423 -0.86847,3.99763 -1.93013,7.77243 -6.06845,8.00617 -1.98442,0.58079 -2.541465,-3.76448 -3.162155,-2.92439 -1.75524,-1.2779 -0.67427,-4.22227 0.20397,-7.04745 2.519025,-5.07687 5.165055,-7.36986 7.548125,-7.71856 z"
       inkscape:label="Trasera O2" /><path
       style="display:inline;fill:url(#linearGradient7);fill-opacity:1;stroke-width:10.97"
       d="m -26.931961,138.70437 c 0.507652,-0.0608 1.0144,-0.0935 1.543481,-0.81851 4.098756,-4.48093 7.593286,-22.00139 7.384328,-23.12649 2.507473,0.74114 4.039671,0.86722 5.100029,0.46821 1.012737,-0.33323 0.867228,-1.05255 1.012938,-1.67479 0.335969,-1.60635 -0.728559,-3.39838 -1.876075,-4.61205 -1.330983,-0.21193 -2.477888,-0.7026 -3.980821,0.20314 l -9.979008,0.28113 c 0.363487,0.14556 0.52364,0.3224 0.280633,0.56126 -0.447568,-0.11402 -0.74434,-0.0605 -0.77174,0.29233 -0.223501,-0.15836 -0.229276,-0.43077 -1.064066,-0.26894 -0.136236,0.10864 -0.337188,0.22863 -0.380024,0.4151 -0.06859,0.20312 0.05077,0.38583 0.415102,0.40341 -0.16334,0.24536 -0.369603,0.45792 -0.795126,0.50279 -0.850282,1.45415 0.132471,1.94353 1.005602,2.49063 1.324827,0.77957 2.832626,0.74882 4.373197,0.57295 -0.597227,6.7772 -2.353673,13.16799 -4.039186,19.58242 0.404902,-0.27667 0.512003,-0.14077 0.593922,0.0563 0.345512,0.62435 -0.01348,0.96167 -0.232198,1.35615 0.402118,0.0734 0.16822,0.2913 -0.397563,0.58467 4.88e-4,1.25756 0.257344,2.36707 1.806575,2.73027 z"
       id="path2-8"
       sodipodi:nodetypes="cccccccccccccccccccccc"
       inkscape:label="Frontal T" /><path
       id="path27-7"
       style="display:inline;fill:url(#linearGradient37);fill-opacity:1;stroke:none;stroke-width:10.97;stroke-dasharray:none;stroke-opacity:1"
       d="m -2.093028,110.49673 c -0.38366,-0.009 -0.71397,0.0456 -0.96273,0.1447 -3.39206,-1.03446 -12.33533,7.88421 -11.64632,13.84462 -0.56009,9.02166 1.00764,15.28107 7.53029,15.10761 6.23707003,-0.0919 9.64743,-4.63525 10.89752,-12.58166 2.14271,-13.24097 -3.13312997,-16.45101 -5.81876,-16.51527 z m -0.8692,5.2896 c 2.35275003,0.15761 2.35823003,4.0094 1.35599,9.44801 -0.7965,3.90012 -1.77018,7.58283 -5.56555,7.81088 -1.81996,0.56662 -2.33084,-3.67266 -2.90009,-2.85306 -1.60979,-1.24673 -0.61839,-4.11927 0.18707,-6.87554 2.31025,-4.95304 4.73701,-7.1901 6.92258,-7.53029 z"
       inkscape:label="Frontal O1" /><path
       d="m 13.081126,103.5144 c -2.98507,6.40646 -5.78991,12.82323 -7.2962,19.31665 -1.94937,6.43547 -2.59799,9.65045 -2.56935,11.84321 0.40011,-0.1367 0.6528,-0.53876 0.83302,-1.07126 -0.2024,0.86712 0.49525,1.07176 0.11576,1.7198 -0.80559,0.38724 -0.54637,0.84103 -0.72244,1.26762 0.0372,0.15799 0.0784,0.3147 0.12299,0.46922 l 0.41755,-0.0336 c -0.0978,0.27285 -0.3185,0.51264 -0.43977,0.81856 0.15565,0.41768 0.33521,0.57132 0.4563,0.7028 2.2797,-1.28755 4.01352,-7.07324 5.8136,-12.13777 0.13478,5.48921 0.72992,8.69481 1.52859,12.07162 2.87728,-4.89873 5.84652,-9.40549 9.760651,-13.45034 -1.642781,8.57026 -4.173061,17.48973 -0.665601,24.03367 5.668241,-4.50936 7.67716,-24.2105 9.29349,-45.5414 -5.337259,6.49279 -10.10976,13.50358 -14.83785,20.77961 -0.63447,-6.80554 -1.26293,-13.63626 -1.81074,-20.7884 z"
       style="display:inline;fill:url(#linearGradient22);stroke-width:10.97"
       id="path15"
       sodipodi:nodetypes="scccccccccccccccss"
       inkscape:label="Frontal M" /><path
       id="path27-7-3"
       style="display:inline;fill:url(#linearGradient3);fill-opacity:1;stroke:none;stroke-width:10.97;stroke-dasharray:none;stroke-opacity:1"
       d="m 41.686623,110.57569 c -0.38366,-0.009 -0.71397,0.0456 -0.96273,0.1447 -3.39206,-1.03445 -12.335335,7.88422 -11.646325,13.84463 -0.56009,9.02165 1.00764,15.28106 7.530295,15.1076 6.23707,-0.0919 9.64743,-4.63525 10.89752,-12.58165 2.14271,-13.24097 -3.13313,-16.45101 -5.81876,-16.51528 z m -0.8692,5.2896 c 2.35275,0.15761 2.35823,4.0094 1.35599,9.44801 -0.7965,3.90012 -1.77018,7.58283 -5.56555,7.81088 -1.81996,0.56662 -2.33084,-3.67266 -2.90009,-2.85306 -1.60979,-1.24673 -0.61839,-4.11927 0.18707,-6.87554 2.31025,-4.95304 4.73701,-7.1901 6.92258,-7.53029 z"
       inkscape:label="Frontal O2" /></g><g
     inkscape:groupmode="layer"
     id="layer3"
     inkscape:label="Letras Tickets"
     transform="translate(-43.8916,-77.817377)"><g
       id="g116-1-1"
       inkscape:label="Tickets brillo"
       transform="translate(23.203114,-0.20658563)"
       style="fill:#ff00ff;filter:url(#filter116-6)"><path
         d="m 24.417285,140.89324 q -0.595312,0 -0.595312,-0.60771 0,-0.5085 0.607714,-0.91777 0.545703,-0.37208 1.091407,-0.37208 0.644921,0 0.644921,0.70694 0,0.50849 -0.644921,0.86816 -0.558106,0.32246 -1.103809,0.32246 z m -5.481836,8.59483 q 0,0.33486 0.719336,0.33486 0.161231,0 0.161231,0.19844 0,0.23564 -0.818555,0.23564 -0.930176,0 -0.930176,-0.89297 0,-1.04179 2.765723,-4.35322 l -3.38584,2.76572 q -3.001367,2.45567 -4.353223,2.45567 -0.148828,0 -0.148828,-0.16123 0,-0.22324 0.248047,-0.27285 0.781348,-0.14883 1.42627,-0.5085 0.806152,-0.44648 3.423046,-2.51768 l 3.795118,-3.1874 q 0.248046,-0.0868 0.669726,-0.0868 0.42168,0 0.42168,0.48369 0,0.5209 -1.996778,2.81533 -1.996777,2.28203 -1.996777,2.69131 z m 6.35,-2.71612 -2.59209,2.03399 q -2.009179,1.42627 -3.063379,1.42627 -0.148828,0 -0.148828,-0.14883 0,-0.22324 0.297657,-0.28525 1.153417,-0.22325 3.12539,-1.72393 l 3.447852,-2.75332 q 2.827734,-2.31924 4.353222,-2.31924 0.806153,0 0.806153,0.62012 0.272851,0 0.272851,0.24805 0,0.21084 -0.310058,0.22324 -0.248047,0.88056 -0.930176,1.74873 -0.818555,1.0418 -1.575098,1.0418 -0.446484,0 -0.446484,-0.40928 0,-0.58291 0.967383,-1.51309 0.855761,-0.83095 1.53789,-1.11621 l 0.02481,-0.13642 q 0,-0.17364 -0.173633,-0.17364 -0.806152,0 -2.96416,2.22002 -2.145606,2.22002 -2.145606,3.10059 0,0.5581 0.47129,0.78135 0.235644,0.11162 0.880566,0.17363 0.471289,0.0496 0.471289,0.21084 0,0.24805 -0.868164,0.24805 -1.934766,0 -1.934766,-1.76114 0,-0.66972 0.496094,-1.73633 z m 5.531445,-2.38125 q -0.359668,0.16123 -1.016992,0.81856 -0.706933,0.69453 -0.706933,0.96738 l 0.09922,0.0992 q 0.334864,0 0.930176,-0.76894 0.508496,-0.65733 0.694531,-1.11622 z m 4.849317,0.11163 -3.323828,2.79052 -2.269629,1.79834 q -1.624707,1.14102 -2.666504,1.14102 -0.148828,0 -0.148828,-0.16123 0,-0.21084 0.248047,-0.27285 1.637109,-0.38448 4.427636,-2.71612 l 3.534668,-2.95175 q 1.21543,-1.017 3.919141,-4.03077 l 3.472656,-3.96875 q 0.818555,-0.97978 1.153418,-0.97978 0.434082,0 0.434082,0.43408 0,0.5457 -1.066602,1.86035 l -1.53789,1.74873 -4.948535,5.70508 q 1.835547,-1.31465 2.691308,-1.31465 1.00459,0 1.00459,0.99219 0,1.11621 -1.95957,1.90996 -1.5875,0.64492 -2.96416,0.65732 0.446484,1.0542 1.153418,2.39366 0.235644,0.28525 0.768945,0.28525 0.173633,0 0.173633,0.19844 0,0.27285 -0.967383,0.27285 -0.471289,0 -0.806152,-0.24805 -0.310059,-0.21084 -1.364258,-2.44326 l -1.240235,1.48828 q -1.041796,1.21543 -1.240234,1.21543 -0.533301,0 -0.533301,-0.62011 0,-0.35967 1.947168,-2.71612 z m -0.372071,2.35644 q 1.860352,-0.23564 3.063379,-1.01699 1.203028,-0.78135 1.203028,-1.32705 0,-0.28526 -0.359668,-0.28526 -1.364258,0 -3.906739,2.6293 z m 6.895703,1.36426 q -0.620117,0.14883 -2.33164,1.14101 -1.513086,0.86817 -2.294434,0.86817 -0.148828,0 -0.148828,-0.16123 0,-0.22324 0.322461,-0.27285 0.756543,-0.12403 2.133203,-0.93018 1.513086,-0.86816 2.468066,-1.09141 0.570508,-1.37666 2.356446,-2.88974 1.897558,-1.62471 3.237011,-1.62471 0.992188,0 0.992188,0.84336 0,1.10381 -2.095996,2.40606 -1.537891,0.96738 -3.150195,1.51308 -0.173633,0.39688 -0.173633,0.83096 0,0.64492 0.446484,0.84336 0.223242,0.0868 0.843359,0.11162 0.446485,0.0124 0.446485,0.21084 0,0.31006 -1.525488,0.31006 -1.612305,0 -1.612305,-1.40147 0,-0.32246 0.08682,-0.70693 z m 1.63711,-0.69453 q 1.141015,-0.55811 2.406054,-1.51309 1.686719,-1.25264 1.686719,-1.98437 0,-0.29766 -0.272851,-0.29766 -0.806153,0 -2.195215,1.48828 -1.240235,1.35186 -1.624707,2.30684 z m 11.149706,-5.39502 -4.464844,0.17363 q -0.37207,0 -0.37207,-0.19844 0,-0.16123 0.607714,-0.24804 0.855762,-0.13643 2.406055,-0.23565 1.723926,-0.0992 2.418457,-0.18603 l 1.773535,-2.1208 q 1.42627,-1.68672 1.723926,-1.68672 0.37207,0 0.37207,0.47129 0,0.50849 -2.257226,3.33623 1.302246,-0.0868 2.158007,-0.0868 0.570508,0 0.570508,0.22324 0,0.24805 -1.37666,0.33487 l -1.885156,0.062 -2.765723,3.46025 q -2.616894,3.41065 -2.616894,4.06797 0,0.31006 0.421679,0.32246 0.42168,0 0.42168,0.19844 0,0.23564 -0.545703,0.23564 -1.103809,0 -1.103809,-0.89297 0,-0.70693 0.719336,-2.02158 l 1.079004,-1.81074 -3.671093,2.88975 q -2.294434,1.81074 -3.534668,1.81074 -0.148828,0 -0.148828,-0.16123 0,-0.21084 0.248046,-0.27285 0.42168,-0.0868 1.277442,-0.43409 0.830957,-0.43408 3.695898,-2.6789 2.120801,-1.64951 2.666504,-2.14561 0.979785,-0.89297 2.182813,-2.40605 z m 0.855763,5.97793 q -2.579688,2.1208 -3.919141,2.1208 -0.148828,0 -0.148828,-0.14883 0,-0.22324 0.248047,-0.28525 0.458887,-0.11162 1.413867,-0.4961 0.892969,-0.48369 4.539258,-3.52226 3.460254,-2.87735 3.54707,-2.87735 0.285254,0 0.558106,0.24805 0.285254,0.24805 0.285254,0.5333 0,0.90537 -1.413868,3.1874 -1.227832,1.97198 -2.145605,2.95176 0.533301,0 0.533301,0.19844 0,0.24805 -0.520899,0.24805 -0.136425,0 -0.409277,-0.0496 -0.260449,-0.0496 -0.396875,-0.0496 -0.09922,0 -0.297656,0.0372 -0.198438,0.0372 -0.297657,0.0372 -1.575097,0 -1.575097,-2.1332 z m 1.971972,1.079 q 0.868165,-0.71933 1.909961,-2.48047 0.967383,-1.63711 1.351856,-2.88974 l -4.440039,3.60908 q 0.458887,0.0744 0.768945,0.71933 z m -0.359667,0.38447 -0.347266,-0.97978 q -0.272852,-0.71934 -0.533301,-0.71934 -0.272851,0 -0.272851,0.42168 0,0.42168 0.248046,0.86817 0.285254,0.50849 0.669727,0.50849 0.148828,0 0.235645,-0.0992 z"
         id="text115-1-5"
         style="font-size:25.4px;font-family:'Vladimir Script';-inkscape-font-specification:'Vladimir Script';white-space:pre;inline-size:87.253;stroke-width:10.97"
         transform="translate(34.892037,8.3254458)"
         aria-label="ickets" /><path
         d="m 63.611468,138.37274 3.290068,0.0689 q 1.56752,0 3.910187,-0.34451 1.050754,-0.15503 1.240235,-0.15503 0.275608,0 0.275608,0.24116 0,0.32728 -0.844049,0.56844 l -1.154108,0.25838 q -3.427873,0.89573 -7.958176,0.79238 -3.789608,4.27192 -8.406039,11.11044 -3.410647,5.04706 -5.270999,6.97632 -3.737932,3.89296 -7.406961,3.89296 -1.326362,0 -2.084284,-0.84405 -0.757921,-0.84405 -0.757921,-2.18764 0,-2.35989 2.153186,-4.06521 2.153186,-1.70533 3.083362,-1.70533 0.361736,0 0.361736,0.34451 0,0.32729 -1.188559,1.22301 -1.56752,1.17134 -2.239314,1.94648 -1.188558,1.39527 -1.188558,2.92834 0,1.55029 1.25746,1.55029 2.738853,0 7.251931,-5.32267 0.999078,-1.15411 5.64996,-7.54477 3.445098,-4.71978 7.37251,-8.35436 l -4.978167,-0.12058 q -3.565676,0 -6.580136,1.60197 -1.980932,1.05076 -3.927412,2.96279 -1.619196,1.60197 -1.808676,1.60197 -0.671794,0 -0.671794,-0.48232 0,-0.12058 1.016304,-1.27468 1.25746,-1.41249 1.894803,-2.4288 1.016304,-1.61919 1.016304,-2.85943 0,-0.1378 -0.01723,-0.39619 -0.01723,-0.25838 -0.01723,-0.39618 0,-0.53399 0.447863,-0.53399 1.050755,0 1.050755,0.58566 0,2.11874 -2.618275,4.96095 2.824981,-2.58383 5.408804,-3.70348 2.807755,-1.20579 6.442333,-1.20579 1.791451,0 4.668107,0.24116 0.551216,-0.65457 0.964628,-0.65457 0.396186,0 0.361735,0.72347 z"
         id="text116-3-1"
         style="font-size:35.2778px;font-family:'Vladimir Script';-inkscape-font-specification:'Vladimir Script';stroke-width:10.97"
         aria-label="T" /></g><g
       id="g116-1-3"
       inkscape:label="Tickets brillo"
       transform="translate(23.203114,-0.20658563)"
       style="fill:#ff00ff;filter:url(#filter116-1)"><path
         d="m 24.417285,140.89324 q -0.595312,0 -0.595312,-0.60771 0,-0.5085 0.607714,-0.91777 0.545703,-0.37208 1.091407,-0.37208 0.644921,0 0.644921,0.70694 0,0.50849 -0.644921,0.86816 -0.558106,0.32246 -1.103809,0.32246 z m -5.481836,8.59483 q 0,0.33486 0.719336,0.33486 0.161231,0 0.161231,0.19844 0,0.23564 -0.818555,0.23564 -0.930176,0 -0.930176,-0.89297 0,-1.04179 2.765723,-4.35322 l -3.38584,2.76572 q -3.001367,2.45567 -4.353223,2.45567 -0.148828,0 -0.148828,-0.16123 0,-0.22324 0.248047,-0.27285 0.781348,-0.14883 1.42627,-0.5085 0.806152,-0.44648 3.423046,-2.51768 l 3.795118,-3.1874 q 0.248046,-0.0868 0.669726,-0.0868 0.42168,0 0.42168,0.48369 0,0.5209 -1.996778,2.81533 -1.996777,2.28203 -1.996777,2.69131 z m 6.35,-2.71612 -2.59209,2.03399 q -2.009179,1.42627 -3.063379,1.42627 -0.148828,0 -0.148828,-0.14883 0,-0.22324 0.297657,-0.28525 1.153417,-0.22325 3.12539,-1.72393 l 3.447852,-2.75332 q 2.827734,-2.31924 4.353222,-2.31924 0.806153,0 0.806153,0.62012 0.272851,0 0.272851,0.24805 0,0.21084 -0.310058,0.22324 -0.248047,0.88056 -0.930176,1.74873 -0.818555,1.0418 -1.575098,1.0418 -0.446484,0 -0.446484,-0.40928 0,-0.58291 0.967383,-1.51309 0.855761,-0.83095 1.53789,-1.11621 l 0.02481,-0.13642 q 0,-0.17364 -0.173633,-0.17364 -0.806152,0 -2.96416,2.22002 -2.145606,2.22002 -2.145606,3.10059 0,0.5581 0.47129,0.78135 0.235644,0.11162 0.880566,0.17363 0.471289,0.0496 0.471289,0.21084 0,0.24805 -0.868164,0.24805 -1.934766,0 -1.934766,-1.76114 0,-0.66972 0.496094,-1.73633 z m 5.531445,-2.38125 q -0.359668,0.16123 -1.016992,0.81856 -0.706933,0.69453 -0.706933,0.96738 l 0.09922,0.0992 q 0.334864,0 0.930176,-0.76894 0.508496,-0.65733 0.694531,-1.11622 z m 4.849317,0.11163 -3.323828,2.79052 -2.269629,1.79834 q -1.624707,1.14102 -2.666504,1.14102 -0.148828,0 -0.148828,-0.16123 0,-0.21084 0.248047,-0.27285 1.637109,-0.38448 4.427636,-2.71612 l 3.534668,-2.95175 q 1.21543,-1.017 3.919141,-4.03077 l 3.472656,-3.96875 q 0.818555,-0.97978 1.153418,-0.97978 0.434082,0 0.434082,0.43408 0,0.5457 -1.066602,1.86035 l -1.53789,1.74873 -4.948535,5.70508 q 1.835547,-1.31465 2.691308,-1.31465 1.00459,0 1.00459,0.99219 0,1.11621 -1.95957,1.90996 -1.5875,0.64492 -2.96416,0.65732 0.446484,1.0542 1.153418,2.39366 0.235644,0.28525 0.768945,0.28525 0.173633,0 0.173633,0.19844 0,0.27285 -0.967383,0.27285 -0.471289,0 -0.806152,-0.24805 -0.310059,-0.21084 -1.364258,-2.44326 l -1.240235,1.48828 q -1.041796,1.21543 -1.240234,1.21543 -0.533301,0 -0.533301,-0.62011 0,-0.35967 1.947168,-2.71612 z m -0.372071,2.35644 q 1.860352,-0.23564 3.063379,-1.01699 1.203028,-0.78135 1.203028,-1.32705 0,-0.28526 -0.359668,-0.28526 -1.364258,0 -3.906739,2.6293 z m 6.895703,1.36426 q -0.620117,0.14883 -2.33164,1.14101 -1.513086,0.86817 -2.294434,0.86817 -0.148828,0 -0.148828,-0.16123 0,-0.22324 0.322461,-0.27285 0.756543,-0.12403 2.133203,-0.93018 1.513086,-0.86816 2.468066,-1.09141 0.570508,-1.37666 2.356446,-2.88974 1.897558,-1.62471 3.237011,-1.62471 0.992188,0 0.992188,0.84336 0,1.10381 -2.095996,2.40606 -1.537891,0.96738 -3.150195,1.51308 -0.173633,0.39688 -0.173633,0.83096 0,0.64492 0.446484,0.84336 0.223242,0.0868 0.843359,0.11162 0.446485,0.0124 0.446485,0.21084 0,0.31006 -1.525488,0.31006 -1.612305,0 -1.612305,-1.40147 0,-0.32246 0.08682,-0.70693 z m 1.63711,-0.69453 q 1.141015,-0.55811 2.406054,-1.51309 1.686719,-1.25264 1.686719,-1.98437 0,-0.29766 -0.272851,-0.29766 -0.806153,0 -2.195215,1.48828 -1.240235,1.35186 -1.624707,2.30684 z m 11.149706,-5.39502 -4.464844,0.17363 q -0.37207,0 -0.37207,-0.19844 0,-0.16123 0.607714,-0.24804 0.855762,-0.13643 2.406055,-0.23565 1.723926,-0.0992 2.418457,-0.18603 l 1.773535,-2.1208 q 1.42627,-1.68672 1.723926,-1.68672 0.37207,0 0.37207,0.47129 0,0.50849 -2.257226,3.33623 1.302246,-0.0868 2.158007,-0.0868 0.570508,0 0.570508,0.22324 0,0.24805 -1.37666,0.33487 l -1.885156,0.062 -2.765723,3.46025 q -2.616894,3.41065 -2.616894,4.06797 0,0.31006 0.421679,0.32246 0.42168,0 0.42168,0.19844 0,0.23564 -0.545703,0.23564 -1.103809,0 -1.103809,-0.89297 0,-0.70693 0.719336,-2.02158 l 1.079004,-1.81074 -3.671093,2.88975 q -2.294434,1.81074 -3.534668,1.81074 -0.148828,0 -0.148828,-0.16123 0,-0.21084 0.248046,-0.27285 0.42168,-0.0868 1.277442,-0.43409 0.830957,-0.43408 3.695898,-2.6789 2.120801,-1.64951 2.666504,-2.14561 0.979785,-0.89297 2.182813,-2.40605 z m 0.855763,5.97793 q -2.579688,2.1208 -3.919141,2.1208 -0.148828,0 -0.148828,-0.14883 0,-0.22324 0.248047,-0.28525 0.458887,-0.11162 1.413867,-0.4961 0.892969,-0.48369 4.539258,-3.52226 3.460254,-2.87735 3.54707,-2.87735 0.285254,0 0.558106,0.24805 0.285254,0.24805 0.285254,0.5333 0,0.90537 -1.413868,3.1874 -1.227832,1.97198 -2.145605,2.95176 0.533301,0 0.533301,0.19844 0,0.24805 -0.520899,0.24805 -0.136425,0 -0.409277,-0.0496 -0.260449,-0.0496 -0.396875,-0.0496 -0.09922,0 -0.297656,0.0372 -0.198438,0.0372 -0.297657,0.0372 -1.575097,0 -1.575097,-2.1332 z m 1.971972,1.079 q 0.868165,-0.71933 1.909961,-2.48047 0.967383,-1.63711 1.351856,-2.88974 l -4.440039,3.60908 q 0.458887,0.0744 0.768945,0.71933 z m -0.359667,0.38447 -0.347266,-0.97978 q -0.272852,-0.71934 -0.533301,-0.71934 -0.272851,0 -0.272851,0.42168 0,0.42168 0.248046,0.86817 0.285254,0.50849 0.669727,0.50849 0.148828,0 0.235645,-0.0992 z"
         id="text115-1-3"
         style="font-size:25.4px;font-family:'Vladimir Script';-inkscape-font-specification:'Vladimir Script';white-space:pre;inline-size:87.253;stroke-width:10.97"
         transform="translate(34.892037,8.3254458)"
         aria-label="ickets" /><path
         d="m 63.611468,138.37274 3.290068,0.0689 q 1.56752,0 3.910187,-0.34451 1.050754,-0.15503 1.240235,-0.15503 0.275608,0 0.275608,0.24116 0,0.32728 -0.844049,0.56844 l -1.154108,0.25838 q -3.427873,0.89573 -7.958176,0.79238 -3.789608,4.27192 -8.406039,11.11044 -3.410647,5.04706 -5.270999,6.97632 -3.737932,3.89296 -7.406961,3.89296 -1.326362,0 -2.084284,-0.84405 -0.757921,-0.84405 -0.757921,-2.18764 0,-2.35989 2.153186,-4.06521 2.153186,-1.70533 3.083362,-1.70533 0.361736,0 0.361736,0.34451 0,0.32729 -1.188559,1.22301 -1.56752,1.17134 -2.239314,1.94648 -1.188558,1.39527 -1.188558,2.92834 0,1.55029 1.25746,1.55029 2.738853,0 7.251931,-5.32267 0.999078,-1.15411 5.64996,-7.54477 3.445098,-4.71978 7.37251,-8.35436 l -4.978167,-0.12058 q -3.565676,0 -6.580136,1.60197 -1.980932,1.05076 -3.927412,2.96279 -1.619196,1.60197 -1.808676,1.60197 -0.671794,0 -0.671794,-0.48232 0,-0.12058 1.016304,-1.27468 1.25746,-1.41249 1.894803,-2.4288 1.016304,-1.61919 1.016304,-2.85943 0,-0.1378 -0.01723,-0.39619 -0.01723,-0.25838 -0.01723,-0.39618 0,-0.53399 0.447863,-0.53399 1.050755,0 1.050755,0.58566 0,2.11874 -2.618275,4.96095 2.824981,-2.58383 5.408804,-3.70348 2.807755,-1.20579 6.442333,-1.20579 1.791451,0 4.668107,0.24116 0.551216,-0.65457 0.964628,-0.65457 0.396186,0 0.361735,0.72347 z"
         id="text116-3-8"
         style="font-size:35.2778px;font-family:'Vladimir Script';-inkscape-font-specification:'Vladimir Script';stroke-width:10.97"
         aria-label="T" /></g><g
       id="g116-1-6"
       inkscape:label="Tickets brillo"
       transform="translate(23.203114,-0.20658563)"
       style="fill:#ff00ff;filter:url(#filter116-7)"><path
         d="m 24.417285,140.89324 q -0.595312,0 -0.595312,-0.60771 0,-0.5085 0.607714,-0.91777 0.545703,-0.37208 1.091407,-0.37208 0.644921,0 0.644921,0.70694 0,0.50849 -0.644921,0.86816 -0.558106,0.32246 -1.103809,0.32246 z m -5.481836,8.59483 q 0,0.33486 0.719336,0.33486 0.161231,0 0.161231,0.19844 0,0.23564 -0.818555,0.23564 -0.930176,0 -0.930176,-0.89297 0,-1.04179 2.765723,-4.35322 l -3.38584,2.76572 q -3.001367,2.45567 -4.353223,2.45567 -0.148828,0 -0.148828,-0.16123 0,-0.22324 0.248047,-0.27285 0.781348,-0.14883 1.42627,-0.5085 0.806152,-0.44648 3.423046,-2.51768 l 3.795118,-3.1874 q 0.248046,-0.0868 0.669726,-0.0868 0.42168,0 0.42168,0.48369 0,0.5209 -1.996778,2.81533 -1.996777,2.28203 -1.996777,2.69131 z m 6.35,-2.71612 -2.59209,2.03399 q -2.009179,1.42627 -3.063379,1.42627 -0.148828,0 -0.148828,-0.14883 0,-0.22324 0.297657,-0.28525 1.153417,-0.22325 3.12539,-1.72393 l 3.447852,-2.75332 q 2.827734,-2.31924 4.353222,-2.31924 0.806153,0 0.806153,0.62012 0.272851,0 0.272851,0.24805 0,0.21084 -0.310058,0.22324 -0.248047,0.88056 -0.930176,1.74873 -0.818555,1.0418 -1.575098,1.0418 -0.446484,0 -0.446484,-0.40928 0,-0.58291 0.967383,-1.51309 0.855761,-0.83095 1.53789,-1.11621 l 0.02481,-0.13642 q 0,-0.17364 -0.173633,-0.17364 -0.806152,0 -2.96416,2.22002 -2.145606,2.22002 -2.145606,3.10059 0,0.5581 0.47129,0.78135 0.235644,0.11162 0.880566,0.17363 0.471289,0.0496 0.471289,0.21084 0,0.24805 -0.868164,0.24805 -1.934766,0 -1.934766,-1.76114 0,-0.66972 0.496094,-1.73633 z m 5.531445,-2.38125 q -0.359668,0.16123 -1.016992,0.81856 -0.706933,0.69453 -0.706933,0.96738 l 0.09922,0.0992 q 0.334864,0 0.930176,-0.76894 0.508496,-0.65733 0.694531,-1.11622 z m 4.849317,0.11163 -3.323828,2.79052 -2.269629,1.79834 q -1.624707,1.14102 -2.666504,1.14102 -0.148828,0 -0.148828,-0.16123 0,-0.21084 0.248047,-0.27285 1.637109,-0.38448 4.427636,-2.71612 l 3.534668,-2.95175 q 1.21543,-1.017 3.919141,-4.03077 l 3.472656,-3.96875 q 0.818555,-0.97978 1.153418,-0.97978 0.434082,0 0.434082,0.43408 0,0.5457 -1.066602,1.86035 l -1.53789,1.74873 -4.948535,5.70508 q 1.835547,-1.31465 2.691308,-1.31465 1.00459,0 1.00459,0.99219 0,1.11621 -1.95957,1.90996 -1.5875,0.64492 -2.96416,0.65732 0.446484,1.0542 1.153418,2.39366 0.235644,0.28525 0.768945,0.28525 0.173633,0 0.173633,0.19844 0,0.27285 -0.967383,0.27285 -0.471289,0 -0.806152,-0.24805 -0.310059,-0.21084 -1.364258,-2.44326 l -1.240235,1.48828 q -1.041796,1.21543 -1.240234,1.21543 -0.533301,0 -0.533301,-0.62011 0,-0.35967 1.947168,-2.71612 z m -0.372071,2.35644 q 1.860352,-0.23564 3.063379,-1.01699 1.203028,-0.78135 1.203028,-1.32705 0,-0.28526 -0.359668,-0.28526 -1.364258,0 -3.906739,2.6293 z m 6.895703,1.36426 q -0.620117,0.14883 -2.33164,1.14101 -1.513086,0.86817 -2.294434,0.86817 -0.148828,0 -0.148828,-0.16123 0,-0.22324 0.322461,-0.27285 0.756543,-0.12403 2.133203,-0.93018 1.513086,-0.86816 2.468066,-1.09141 0.570508,-1.37666 2.356446,-2.88974 1.897558,-1.62471 3.237011,-1.62471 0.992188,0 0.992188,0.84336 0,1.10381 -2.095996,2.40606 -1.537891,0.96738 -3.150195,1.51308 -0.173633,0.39688 -0.173633,0.83096 0,0.64492 0.446484,0.84336 0.223242,0.0868 0.843359,0.11162 0.446485,0.0124 0.446485,0.21084 0,0.31006 -1.525488,0.31006 -1.612305,0 -1.612305,-1.40147 0,-0.32246 0.08682,-0.70693 z m 1.63711,-0.69453 q 1.141015,-0.55811 2.406054,-1.51309 1.686719,-1.25264 1.686719,-1.98437 0,-0.29766 -0.272851,-0.29766 -0.806153,0 -2.195215,1.48828 -1.240235,1.35186 -1.624707,2.30684 z m 11.149706,-5.39502 -4.464844,0.17363 q -0.37207,0 -0.37207,-0.19844 0,-0.16123 0.607714,-0.24804 0.855762,-0.13643 2.406055,-0.23565 1.723926,-0.0992 2.418457,-0.18603 l 1.773535,-2.1208 q 1.42627,-1.68672 1.723926,-1.68672 0.37207,0 0.37207,0.47129 0,0.50849 -2.257226,3.33623 1.302246,-0.0868 2.158007,-0.0868 0.570508,0 0.570508,0.22324 0,0.24805 -1.37666,0.33487 l -1.885156,0.062 -2.765723,3.46025 q -2.616894,3.41065 -2.616894,4.06797 0,0.31006 0.421679,0.32246 0.42168,0 0.42168,0.19844 0,0.23564 -0.545703,0.23564 -1.103809,0 -1.103809,-0.89297 0,-0.70693 0.719336,-2.02158 l 1.079004,-1.81074 -3.671093,2.88975 q -2.294434,1.81074 -3.534668,1.81074 -0.148828,0 -0.148828,-0.16123 0,-0.21084 0.248046,-0.27285 0.42168,-0.0868 1.277442,-0.43409 0.830957,-0.43408 3.695898,-2.6789 2.120801,-1.64951 2.666504,-2.14561 0.979785,-0.89297 2.182813,-2.40605 z m 0.855763,5.97793 q -2.579688,2.1208 -3.919141,2.1208 -0.148828,0 -0.148828,-0.14883 0,-0.22324 0.248047,-0.28525 0.458887,-0.11162 1.413867,-0.4961 0.892969,-0.48369 4.539258,-3.52226 3.460254,-2.87735 3.54707,-2.87735 0.285254,0 0.558106,0.24805 0.285254,0.24805 0.285254,0.5333 0,0.90537 -1.413868,3.1874 -1.227832,1.97198 -2.145605,2.95176 0.533301,0 0.533301,0.19844 0,0.24805 -0.520899,0.24805 -0.136425,0 -0.409277,-0.0496 -0.260449,-0.0496 -0.396875,-0.0496 -0.09922,0 -0.297656,0.0372 -0.198438,0.0372 -0.297657,0.0372 -1.575097,0 -1.575097,-2.1332 z m 1.971972,1.079 q 0.868165,-0.71933 1.909961,-2.48047 0.967383,-1.63711 1.351856,-2.88974 l -4.440039,3.60908 q 0.458887,0.0744 0.768945,0.71933 z m -0.359667,0.38447 -0.347266,-0.97978 q -0.272852,-0.71934 -0.533301,-0.71934 -0.272851,0 -0.272851,0.42168 0,0.42168 0.248046,0.86817 0.285254,0.50849 0.669727,0.50849 0.148828,0 0.235645,-0.0992 z"
         id="text115-1-30"
         style="font-size:25.4px;font-family:'Vladimir Script';-inkscape-font-specification:'Vladimir Script';white-space:pre;inline-size:87.253;stroke-width:10.97"
         transform="translate(34.892037,8.3254458)"
         aria-label="ickets" /><path
         d="m 63.611468,138.37274 3.290068,0.0689 q 1.56752,0 3.910187,-0.34451 1.050754,-0.15503 1.240235,-0.15503 0.275608,0 0.275608,0.24116 0,0.32728 -0.844049,0.56844 l -1.154108,0.25838 q -3.427873,0.89573 -7.958176,0.79238 -3.789608,4.27192 -8.406039,11.11044 -3.410647,5.04706 -5.270999,6.97632 -3.737932,3.89296 -7.406961,3.89296 -1.326362,0 -2.084284,-0.84405 -0.757921,-0.84405 -0.757921,-2.18764 0,-2.35989 2.153186,-4.06521 2.153186,-1.70533 3.083362,-1.70533 0.361736,0 0.361736,0.34451 0,0.32729 -1.188559,1.22301 -1.56752,1.17134 -2.239314,1.94648 -1.188558,1.39527 -1.188558,2.92834 0,1.55029 1.25746,1.55029 2.738853,0 7.251931,-5.32267 0.999078,-1.15411 5.64996,-7.54477 3.445098,-4.71978 7.37251,-8.35436 l -4.978167,-0.12058 q -3.565676,0 -6.580136,1.60197 -1.980932,1.05076 -3.927412,2.96279 -1.619196,1.60197 -1.808676,1.60197 -0.671794,0 -0.671794,-0.48232 0,-0.12058 1.016304,-1.27468 1.25746,-1.41249 1.894803,-2.4288 1.016304,-1.61919 1.016304,-2.85943 0,-0.1378 -0.01723,-0.39619 -0.01723,-0.25838 -0.01723,-0.39618 0,-0.53399 0.447863,-0.53399 1.050755,0 1.050755,0.58566 0,2.11874 -2.618275,4.96095 2.824981,-2.58383 5.408804,-3.70348 2.807755,-1.20579 6.442333,-1.20579 1.791451,0 4.668107,0.24116 0.551216,-0.65457 0.964628,-0.65457 0.396186,0 0.361735,0.72347 z"
         id="text116-3-12"
         style="font-size:35.2778px;font-family:'Vladimir Script';-inkscape-font-specification:'Vladimir Script';stroke-width:10.97"
         aria-label="T" /></g><g
       id="g116-1-4"
       inkscape:label="Tickets brillo"
       transform="translate(23.203114,-0.20658563)"
       style="fill:#ff00ff;filter:url(#filter116-60)"><path
         d="m 24.417285,140.89324 q -0.595312,0 -0.595312,-0.60771 0,-0.5085 0.607714,-0.91777 0.545703,-0.37208 1.091407,-0.37208 0.644921,0 0.644921,0.70694 0,0.50849 -0.644921,0.86816 -0.558106,0.32246 -1.103809,0.32246 z m -5.481836,8.59483 q 0,0.33486 0.719336,0.33486 0.161231,0 0.161231,0.19844 0,0.23564 -0.818555,0.23564 -0.930176,0 -0.930176,-0.89297 0,-1.04179 2.765723,-4.35322 l -3.38584,2.76572 q -3.001367,2.45567 -4.353223,2.45567 -0.148828,0 -0.148828,-0.16123 0,-0.22324 0.248047,-0.27285 0.781348,-0.14883 1.42627,-0.5085 0.806152,-0.44648 3.423046,-2.51768 l 3.795118,-3.1874 q 0.248046,-0.0868 0.669726,-0.0868 0.42168,0 0.42168,0.48369 0,0.5209 -1.996778,2.81533 -1.996777,2.28203 -1.996777,2.69131 z m 6.35,-2.71612 -2.59209,2.03399 q -2.009179,1.42627 -3.063379,1.42627 -0.148828,0 -0.148828,-0.14883 0,-0.22324 0.297657,-0.28525 1.153417,-0.22325 3.12539,-1.72393 l 3.447852,-2.75332 q 2.827734,-2.31924 4.353222,-2.31924 0.806153,0 0.806153,0.62012 0.272851,0 0.272851,0.24805 0,0.21084 -0.310058,0.22324 -0.248047,0.88056 -0.930176,1.74873 -0.818555,1.0418 -1.575098,1.0418 -0.446484,0 -0.446484,-0.40928 0,-0.58291 0.967383,-1.51309 0.855761,-0.83095 1.53789,-1.11621 l 0.02481,-0.13642 q 0,-0.17364 -0.173633,-0.17364 -0.806152,0 -2.96416,2.22002 -2.145606,2.22002 -2.145606,3.10059 0,0.5581 0.47129,0.78135 0.235644,0.11162 0.880566,0.17363 0.471289,0.0496 0.471289,0.21084 0,0.24805 -0.868164,0.24805 -1.934766,0 -1.934766,-1.76114 0,-0.66972 0.496094,-1.73633 z m 5.531445,-2.38125 q -0.359668,0.16123 -1.016992,0.81856 -0.706933,0.69453 -0.706933,0.96738 l 0.09922,0.0992 q 0.334864,0 0.930176,-0.76894 0.508496,-0.65733 0.694531,-1.11622 z m 4.849317,0.11163 -3.323828,2.79052 -2.269629,1.79834 q -1.624707,1.14102 -2.666504,1.14102 -0.148828,0 -0.148828,-0.16123 0,-0.21084 0.248047,-0.27285 1.637109,-0.38448 4.427636,-2.71612 l 3.534668,-2.95175 q 1.21543,-1.017 3.919141,-4.03077 l 3.472656,-3.96875 q 0.818555,-0.97978 1.153418,-0.97978 0.434082,0 0.434082,0.43408 0,0.5457 -1.066602,1.86035 l -1.53789,1.74873 -4.948535,5.70508 q 1.835547,-1.31465 2.691308,-1.31465 1.00459,0 1.00459,0.99219 0,1.11621 -1.95957,1.90996 -1.5875,0.64492 -2.96416,0.65732 0.446484,1.0542 1.153418,2.39366 0.235644,0.28525 0.768945,0.28525 0.173633,0 0.173633,0.19844 0,0.27285 -0.967383,0.27285 -0.471289,0 -0.806152,-0.24805 -0.310059,-0.21084 -1.364258,-2.44326 l -1.240235,1.48828 q -1.041796,1.21543 -1.240234,1.21543 -0.533301,0 -0.533301,-0.62011 0,-0.35967 1.947168,-2.71612 z m -0.372071,2.35644 q 1.860352,-0.23564 3.063379,-1.01699 1.203028,-0.78135 1.203028,-1.32705 0,-0.28526 -0.359668,-0.28526 -1.364258,0 -3.906739,2.6293 z m 6.895703,1.36426 q -0.620117,0.14883 -2.33164,1.14101 -1.513086,0.86817 -2.294434,0.86817 -0.148828,0 -0.148828,-0.16123 0,-0.22324 0.322461,-0.27285 0.756543,-0.12403 2.133203,-0.93018 1.513086,-0.86816 2.468066,-1.09141 0.570508,-1.37666 2.356446,-2.88974 1.897558,-1.62471 3.237011,-1.62471 0.992188,0 0.992188,0.84336 0,1.10381 -2.095996,2.40606 -1.537891,0.96738 -3.150195,1.51308 -0.173633,0.39688 -0.173633,0.83096 0,0.64492 0.446484,0.84336 0.223242,0.0868 0.843359,0.11162 0.446485,0.0124 0.446485,0.21084 0,0.31006 -1.525488,0.31006 -1.612305,0 -1.612305,-1.40147 0,-0.32246 0.08682,-0.70693 z m 1.63711,-0.69453 q 1.141015,-0.55811 2.406054,-1.51309 1.686719,-1.25264 1.686719,-1.98437 0,-0.29766 -0.272851,-0.29766 -0.806153,0 -2.195215,1.48828 -1.240235,1.35186 -1.624707,2.30684 z m 11.149706,-5.39502 -4.464844,0.17363 q -0.37207,0 -0.37207,-0.19844 0,-0.16123 0.607714,-0.24804 0.855762,-0.13643 2.406055,-0.23565 1.723926,-0.0992 2.418457,-0.18603 l 1.773535,-2.1208 q 1.42627,-1.68672 1.723926,-1.68672 0.37207,0 0.37207,0.47129 0,0.50849 -2.257226,3.33623 1.302246,-0.0868 2.158007,-0.0868 0.570508,0 0.570508,0.22324 0,0.24805 -1.37666,0.33487 l -1.885156,0.062 -2.765723,3.46025 q -2.616894,3.41065 -2.616894,4.06797 0,0.31006 0.421679,0.32246 0.42168,0 0.42168,0.19844 0,0.23564 -0.545703,0.23564 -1.103809,0 -1.103809,-0.89297 0,-0.70693 0.719336,-2.02158 l 1.079004,-1.81074 -3.671093,2.88975 q -2.294434,1.81074 -3.534668,1.81074 -0.148828,0 -0.148828,-0.16123 0,-0.21084 0.248046,-0.27285 0.42168,-0.0868 1.277442,-0.43409 0.830957,-0.43408 3.695898,-2.6789 2.120801,-1.64951 2.666504,-2.14561 0.979785,-0.89297 2.182813,-2.40605 z m 0.855763,5.97793 q -2.579688,2.1208 -3.919141,2.1208 -0.148828,0 -0.148828,-0.14883 0,-0.22324 0.248047,-0.28525 0.458887,-0.11162 1.413867,-0.4961 0.892969,-0.48369 4.539258,-3.52226 3.460254,-2.87735 3.54707,-2.87735 0.285254,0 0.558106,0.24805 0.285254,0.24805 0.285254,0.5333 0,0.90537 -1.413868,3.1874 -1.227832,1.97198 -2.145605,2.95176 0.533301,0 0.533301,0.19844 0,0.24805 -0.520899,0.24805 -0.136425,0 -0.409277,-0.0496 -0.260449,-0.0496 -0.396875,-0.0496 -0.09922,0 -0.297656,0.0372 -0.198438,0.0372 -0.297657,0.0372 -1.575097,0 -1.575097,-2.1332 z m 1.971972,1.079 q 0.868165,-0.71933 1.909961,-2.48047 0.967383,-1.63711 1.351856,-2.88974 l -4.440039,3.60908 q 0.458887,0.0744 0.768945,0.71933 z m -0.359667,0.38447 -0.347266,-0.97978 q -0.272852,-0.71934 -0.533301,-0.71934 -0.272851,0 -0.272851,0.42168 0,0.42168 0.248046,0.86817 0.285254,0.50849 0.669727,0.50849 0.148828,0 0.235645,-0.0992 z"
         id="text115-1-55"
         style="font-size:25.4px;font-family:'Vladimir Script';-inkscape-font-specification:'Vladimir Script';white-space:pre;inline-size:87.253;stroke-width:10.97"
         transform="translate(34.892037,8.3254458)"
         aria-label="ickets" /><path
         d="m 63.611468,138.37274 3.290068,0.0689 q 1.56752,0 3.910187,-0.34451 1.050754,-0.15503 1.240235,-0.15503 0.275608,0 0.275608,0.24116 0,0.32728 -0.844049,0.56844 l -1.154108,0.25838 q -3.427873,0.89573 -7.958176,0.79238 -3.789608,4.27192 -8.406039,11.11044 -3.410647,5.04706 -5.270999,6.97632 -3.737932,3.89296 -7.406961,3.89296 -1.326362,0 -2.084284,-0.84405 -0.757921,-0.84405 -0.757921,-2.18764 0,-2.35989 2.153186,-4.06521 2.153186,-1.70533 3.083362,-1.70533 0.361736,0 0.361736,0.34451 0,0.32729 -1.188559,1.22301 -1.56752,1.17134 -2.239314,1.94648 -1.188558,1.39527 -1.188558,2.92834 0,1.55029 1.25746,1.55029 2.738853,0 7.251931,-5.32267 0.999078,-1.15411 5.64996,-7.54477 3.445098,-4.71978 7.37251,-8.35436 l -4.978167,-0.12058 q -3.565676,0 -6.580136,1.60197 -1.980932,1.05076 -3.927412,2.96279 -1.619196,1.60197 -1.808676,1.60197 -0.671794,0 -0.671794,-0.48232 0,-0.12058 1.016304,-1.27468 1.25746,-1.41249 1.894803,-2.4288 1.016304,-1.61919 1.016304,-2.85943 0,-0.1378 -0.01723,-0.39619 -0.01723,-0.25838 -0.01723,-0.39618 0,-0.53399 0.447863,-0.53399 1.050755,0 1.050755,0.58566 0,2.11874 -2.618275,4.96095 2.824981,-2.58383 5.408804,-3.70348 2.807755,-1.20579 6.442333,-1.20579 1.791451,0 4.668107,0.24116 0.551216,-0.65457 0.964628,-0.65457 0.396186,0 0.361735,0.72347 z"
         id="text116-3-7"
         style="font-size:35.2778px;font-family:'Vladimir Script';-inkscape-font-specification:'Vladimir Script';stroke-width:10.97"
         aria-label="T" /></g><g
       id="g116"
       inkscape:label="Tickets"
       transform="translate(22.324997,0.00664797)"><path
         d="m 24.417285,140.89324 q -0.595312,0 -0.595312,-0.60771 0,-0.5085 0.607714,-0.91777 0.545703,-0.37208 1.091407,-0.37208 0.644921,0 0.644921,0.70694 0,0.50849 -0.644921,0.86816 -0.558106,0.32246 -1.103809,0.32246 z m -5.481836,8.59483 q 0,0.33486 0.719336,0.33486 0.161231,0 0.161231,0.19844 0,0.23564 -0.818555,0.23564 -0.930176,0 -0.930176,-0.89297 0,-1.04179 2.765723,-4.35322 l -3.38584,2.76572 q -3.001367,2.45567 -4.353223,2.45567 -0.148828,0 -0.148828,-0.16123 0,-0.22324 0.248047,-0.27285 0.781348,-0.14883 1.42627,-0.5085 0.806152,-0.44648 3.423046,-2.51768 l 3.795118,-3.1874 q 0.248046,-0.0868 0.669726,-0.0868 0.42168,0 0.42168,0.48369 0,0.5209 -1.996778,2.81533 -1.996777,2.28203 -1.996777,2.69131 z m 6.35,-2.71612 -2.59209,2.03399 q -2.009179,1.42627 -3.063379,1.42627 -0.148828,0 -0.148828,-0.14883 0,-0.22324 0.297657,-0.28525 1.153417,-0.22325 3.12539,-1.72393 l 3.447852,-2.75332 q 2.827734,-2.31924 4.353222,-2.31924 0.806153,0 0.806153,0.62012 0.272851,0 0.272851,0.24805 0,0.21084 -0.310058,0.22324 -0.248047,0.88056 -0.930176,1.74873 -0.818555,1.0418 -1.575098,1.0418 -0.446484,0 -0.446484,-0.40928 0,-0.58291 0.967383,-1.51309 0.855761,-0.83095 1.53789,-1.11621 l 0.02481,-0.13642 q 0,-0.17364 -0.173633,-0.17364 -0.806152,0 -2.96416,2.22002 -2.145606,2.22002 -2.145606,3.10059 0,0.5581 0.47129,0.78135 0.235644,0.11162 0.880566,0.17363 0.471289,0.0496 0.471289,0.21084 0,0.24805 -0.868164,0.24805 -1.934766,0 -1.934766,-1.76114 0,-0.66972 0.496094,-1.73633 z m 5.531445,-2.38125 q -0.359668,0.16123 -1.016992,0.81856 -0.706933,0.69453 -0.706933,0.96738 l 0.09922,0.0992 q 0.334864,0 0.930176,-0.76894 0.508496,-0.65733 0.694531,-1.11622 z m 4.849317,0.11163 -3.323828,2.79052 -2.269629,1.79834 q -1.624707,1.14102 -2.666504,1.14102 -0.148828,0 -0.148828,-0.16123 0,-0.21084 0.248047,-0.27285 1.637109,-0.38448 4.427636,-2.71612 l 3.534668,-2.95175 q 1.21543,-1.017 3.919141,-4.03077 l 3.472656,-3.96875 q 0.818555,-0.97978 1.153418,-0.97978 0.434082,0 0.434082,0.43408 0,0.5457 -1.066602,1.86035 l -1.53789,1.74873 -4.948535,5.70508 q 1.835547,-1.31465 2.691308,-1.31465 1.00459,0 1.00459,0.99219 0,1.11621 -1.95957,1.90996 -1.5875,0.64492 -2.96416,0.65732 0.446484,1.0542 1.153418,2.39366 0.235644,0.28525 0.768945,0.28525 0.173633,0 0.173633,0.19844 0,0.27285 -0.967383,0.27285 -0.471289,0 -0.806152,-0.24805 -0.310059,-0.21084 -1.364258,-2.44326 l -1.240235,1.48828 q -1.041796,1.21543 -1.240234,1.21543 -0.533301,0 -0.533301,-0.62011 0,-0.35967 1.947168,-2.71612 z m -0.372071,2.35644 q 1.860352,-0.23564 3.063379,-1.01699 1.203028,-0.78135 1.203028,-1.32705 0,-0.28526 -0.359668,-0.28526 -1.364258,0 -3.906739,2.6293 z m 6.895703,1.36426 q -0.620117,0.14883 -2.33164,1.14101 -1.513086,0.86817 -2.294434,0.86817 -0.148828,0 -0.148828,-0.16123 0,-0.22324 0.322461,-0.27285 0.756543,-0.12403 2.133203,-0.93018 1.513086,-0.86816 2.468066,-1.09141 0.570508,-1.37666 2.356446,-2.88974 1.897558,-1.62471 3.237011,-1.62471 0.992188,0 0.992188,0.84336 0,1.10381 -2.095996,2.40606 -1.537891,0.96738 -3.150195,1.51308 -0.173633,0.39688 -0.173633,0.83096 0,0.64492 0.446484,0.84336 0.223242,0.0868 0.843359,0.11162 0.446485,0.0124 0.446485,0.21084 0,0.31006 -1.525488,0.31006 -1.612305,0 -1.612305,-1.40147 0,-0.32246 0.08682,-0.70693 z m 1.63711,-0.69453 q 1.141015,-0.55811 2.406054,-1.51309 1.686719,-1.25264 1.686719,-1.98437 0,-0.29766 -0.272851,-0.29766 -0.806153,0 -2.195215,1.48828 -1.240235,1.35186 -1.624707,2.30684 z m 11.149706,-5.39502 -4.464844,0.17363 q -0.37207,0 -0.37207,-0.19844 0,-0.16123 0.607714,-0.24804 0.855762,-0.13643 2.406055,-0.23565 1.723926,-0.0992 2.418457,-0.18603 l 1.773535,-2.1208 q 1.42627,-1.68672 1.723926,-1.68672 0.37207,0 0.37207,0.47129 0,0.50849 -2.257226,3.33623 1.302246,-0.0868 2.158007,-0.0868 0.570508,0 0.570508,0.22324 0,0.24805 -1.37666,0.33487 l -1.885156,0.062 -2.765723,3.46025 q -2.616894,3.41065 -2.616894,4.06797 0,0.31006 0.421679,0.32246 0.42168,0 0.42168,0.19844 0,0.23564 -0.545703,0.23564 -1.103809,0 -1.103809,-0.89297 0,-0.70693 0.719336,-2.02158 l 1.079004,-1.81074 -3.671093,2.88975 q -2.294434,1.81074 -3.534668,1.81074 -0.148828,0 -0.148828,-0.16123 0,-0.21084 0.248046,-0.27285 0.42168,-0.0868 1.277442,-0.43409 0.830957,-0.43408 3.695898,-2.6789 2.120801,-1.64951 2.666504,-2.14561 0.979785,-0.89297 2.182813,-2.40605 z m 0.855763,5.97793 q -2.579688,2.1208 -3.919141,2.1208 -0.148828,0 -0.148828,-0.14883 0,-0.22324 0.248047,-0.28525 0.458887,-0.11162 1.413867,-0.4961 0.892969,-0.48369 4.539258,-3.52226 3.460254,-2.87735 3.54707,-2.87735 0.285254,0 0.558106,0.24805 0.285254,0.24805 0.285254,0.5333 0,0.90537 -1.413868,3.1874 -1.227832,1.97198 -2.145605,2.95176 0.533301,0 0.533301,0.19844 0,0.24805 -0.520899,0.24805 -0.136425,0 -0.409277,-0.0496 -0.260449,-0.0496 -0.396875,-0.0496 -0.09922,0 -0.297656,0.0372 -0.198438,0.0372 -0.297657,0.0372 -1.575097,0 -1.575097,-2.1332 z m 1.971972,1.079 q 0.868165,-0.71933 1.909961,-2.48047 0.967383,-1.63711 1.351856,-2.88974 l -4.440039,3.60908 q 0.458887,0.0744 0.768945,0.71933 z m -0.359667,0.38447 -0.347266,-0.97978 q -0.272852,-0.71934 -0.533301,-0.71934 -0.272851,0 -0.272851,0.42168 0,0.42168 0.248046,0.86817 0.285254,0.50849 0.669727,0.50849 0.148828,0 0.235645,-0.0992 z"
         id="text115"
         style="font-size:25.4px;font-family:'Vladimir Script';-inkscape-font-specification:'Vladimir Script';white-space:pre;inline-size:87.253;fill:#ffffff;stroke-width:10.97"
         transform="translate(34.892037,8.3254458)"
         aria-label="ickets" /><path
         d="m 63.611468,138.37274 3.290068,0.0689 q 1.56752,0 3.910187,-0.34451 1.050754,-0.15503 1.240235,-0.15503 0.275608,0 0.275608,0.24116 0,0.32728 -0.844049,0.56844 l -1.154108,0.25838 q -3.427873,0.89573 -7.958176,0.79238 -3.789608,4.27192 -8.406039,11.11044 -3.410647,5.04706 -5.270999,6.97632 -3.737932,3.89296 -7.406961,3.89296 -1.326362,0 -2.084284,-0.84405 -0.757921,-0.84405 -0.757921,-2.18764 0,-2.35989 2.153186,-4.06521 2.153186,-1.70533 3.083362,-1.70533 0.361736,0 0.361736,0.34451 0,0.32729 -1.188559,1.22301 -1.56752,1.17134 -2.239314,1.94648 -1.188558,1.39527 -1.188558,2.92834 0,1.55029 1.25746,1.55029 2.738853,0 7.251931,-5.32267 0.999078,-1.15411 5.64996,-7.54477 3.445098,-4.71978 7.37251,-8.35436 l -4.978167,-0.12058 q -3.565676,0 -6.580136,1.60197 -1.980932,1.05076 -3.927412,2.96279 -1.619196,1.60197 -1.808676,1.60197 -0.671794,0 -0.671794,-0.48232 0,-0.12058 1.016304,-1.27468 1.25746,-1.41249 1.894803,-2.4288 1.016304,-1.61919 1.016304,-2.85943 0,-0.1378 -0.01723,-0.39619 -0.01723,-0.25838 -0.01723,-0.39618 0,-0.53399 0.447863,-0.53399 1.050755,0 1.050755,0.58566 0,2.11874 -2.618275,4.96095 2.824981,-2.58383 5.408804,-3.70348 2.807755,-1.20579 6.442333,-1.20579 1.791451,0 4.668107,0.24116 0.551216,-0.65457 0.964628,-0.65457 0.396186,0 0.361735,0.72347 z"
         id="text116"
         style="font-size:35.2778px;font-family:'Vladimir Script';-inkscape-font-specification:'Vladimir Script';fill:#ffffff;stroke-width:10.97"
         aria-label="T" /></g></g></svg>
